<?xml version="1.0" encoding="utf-8"?>
<svg xmlns="http://www.w3.org/2000/svg" xmlns:xlink="http://www.w3.org/1999/xlink" >
    <symbol viewBox="0 0 64 16" id="large-left">
    <path d="M1.092,14.869c0.013,0.02,0.25,0.374,0.681,0.374c0.144,0,0.31-0.04,0.498-0.145
	c0.176-0.099,0.646-0.363,1.531-0.778c4.262-1.995,10.604-3.035,12.53-3.132c0.458-0.023,0.81-0.413,0.787-0.87
	c-0.023-0.457-0.405-0.806-0.87-0.787c-1.469,0.074-5.382,0.671-9.127,1.793c7.475-5.212,17.387-8.336,28.124-8.829
	C45.57,2.021,55.486,4.118,61.767,8.104c0.387,0.245,0.9,0.131,1.145-0.256c0.245-0.387,0.131-0.9-0.256-1.145
	C49.918-1.381,24.473-1.801,7.539,9.048c0.449-0.736,0.897-1.541,1.33-2.427c0.201-0.412,0.031-0.909-0.381-1.11
	c-0.413-0.202-0.909-0.032-1.11,0.381c-2.3,4.708-4.982,7.032-6.028,7.813C0.674,14.209,1.075,14.842,1.092,14.869z"/>
  </symbol>
  <symbol viewBox="0 0 64 16" id="large-right">
    <path d="M62.65,13.705c-1.046-0.781-3.728-3.104-6.028-7.813c-0.201-0.413-0.697-0.583-1.11-0.381
	c-0.412,0.201-0.582,0.698-0.381,1.11c0.433,0.886,0.881,1.692,1.33,2.427C39.527-1.801,14.082-1.381,1.344,6.703
	C0.957,6.948,0.842,7.461,1.088,7.848C1.333,8.235,1.846,8.35,2.233,8.104C8.514,4.118,18.43,2.021,28.754,2.495
	c10.736,0.493,20.648,3.617,28.124,8.829c-3.745-1.122-7.658-1.719-9.127-1.793c-0.466-0.02-0.848,0.33-0.87,0.787
	c-0.024,0.458,0.329,0.848,0.787,0.87c1.926,0.097,8.268,1.137,12.53,3.132c0.885,0.415,1.355,0.678,1.531,0.778
	c0.188,0.104,0.354,0.145,0.498,0.145c0.431,0,0.669-0.354,0.681-0.374C62.925,14.842,63.326,14.209,62.65,13.705z"/>
  </symbol>
  <symbol viewBox="0 0 97 22" id="small-left">
    <path d="M2.645,16.4c3.241-1.117,11.807-4.786,21.326-14.728c0.832-0.87,2.212-0.898,3.081-0.067
	c0.87,0.832,0.9,2.212,0.067,3.082c-1.798,1.878-3.567,3.539-5.285,5.023c21.789-5.803,47.176-5.605,72.513,0.703
	c1.168,0.291,1.879,1.473,1.588,2.641c-0.29,1.168-1.474,1.878-2.641,1.588c-26.181-6.518-52.362-6.349-74.276,0.402
	c8.086,0.141,15.453,1.19,18.181,1.623c1.189,0.189,1.999,1.306,1.81,2.495C38.837,20.235,37.911,21,36.857,21
	c-0.113,0-0.229-0.009-0.345-0.027c-7.921-1.258-19.497-2.202-28.225-1.074c-2.546,0.329-3.933,0.615-4.454,0.723
	c-2.191,0.456-2.744-1.435-2.766-1.517C1.045,19.025,0.549,17.122,2.645,16.4z"/>
  </symbol>
  <symbol viewBox="0 0 97 22" id="small-right">
    <path d="M94.355,16.4c-3.241-1.117-11.807-4.786-21.326-14.728c-0.832-0.87-2.212-0.898-3.081-0.067
	c-0.87,0.832-0.9,2.212-0.067,3.082c1.798,1.878,3.567,3.539,5.285,5.023C53.377,3.906,27.99,4.105,2.654,10.413
	c-1.168,0.291-1.879,1.473-1.588,2.641c0.29,1.168,1.474,1.878,2.641,1.588c26.181-6.518,52.362-6.349,74.276,0.402
	c-8.086,0.141-15.453,1.19-18.181,1.623c-1.189,0.189-1.999,1.306-1.81,2.495c0.17,1.073,1.097,1.838,2.15,1.838
	c0.113,0,0.229-0.009,0.345-0.027c7.921-1.258,19.497-2.202,28.225-1.074c2.546,0.329,3.933,0.615,4.454,0.723
	c2.191,0.456,2.744-1.435,2.766-1.517C95.955,19.025,96.451,17.122,94.355,16.4z"/>
  </symbol>
  
</svg>
