<?xml version="1.0" encoding="utf-8"?>
<!-- Generator: Adobe Illustrator 18.0.0, SVG Export Plug-In . SVG Version: 6.00 Build 0)  -->
<!DOCTYPE svg PUBLIC "-//W3C//DTD SVG 1.1//EN" "http://www.w3.org/Graphics/SVG/1.1/DTD/svg11.dtd">
<svg version="1.1" id="Layer_1" xmlns="http://www.w3.org/2000/svg" xmlns:xlink="http://www.w3.org/1999/xlink" x="0px" y="0px"
	 viewBox="0 0 64 64" enable-background="new 0 0 64 64" xml:space="preserve">
<g id="Numbers">
	<g>
		<g>
			<path fill="#26a8ff" d="M49.3,1h-40C6.8,1,4.8,3,4.8,5.5v53c0,2.5,2,4.5,4.5,4.5h40c2.5,0,4.5-2,4.5-4.5v-53
				C53.8,3,51.7,1,49.3,1z M43,51.2c-0.3,0.2-2.9,1.7-3.1,1.7C39.8,53,39.6,53,39.5,53c-1.1,0-6,0-6.9,0c-1,0-1.5-0.6-1.8-1.1
				c-2.2-4-16.5-29.1-17.6-31.1c-0.4-0.7-0.4-1.5,0.1-2.2c0.4-0.8,2.2-3.8,2.8-4.8c0.1-0.2,0.2-0.2,0.3-0.3c0.4-0.1,3.5-2,4-2.3
				c0.8-0.5,1.7,0,2.1,0.6c0.3,0.5,3.6,6.3,4,7c0.4,0.8,0.3,1.7-0.2,2.6c-0.5,0.9-3.5,5.9-3.5,5.9l7.3,13c0,0,6.6,0.1,7.1,0
				c0.7,0,1.6,0.3,2.2,1.4c0.5,0.8,3.9,6.9,4.2,7.4C44,50,43.5,50.9,43,51.2z"/>
		</g>
		<rect x="55.2" y="9" fill="#26a8ff" width="4" height="5"/>
		<rect x="55.2" y="16" fill="#26a8ff" width="4" height="5"/>
		<rect x="55.2" y="23" fill="#26a8ff" width="4" height="5"/>
		<rect x="55.2" y="30" fill="#26a8ff" width="4" height="5"/>
	</g>
</g>
</svg>
