<?xml version="1.0" encoding="utf-8"?>
<!-- Generator: Adobe Illustrator 16.0.0, SVG Export Plug-In . SVG Version: 6.00 Build 0)  -->
<!DOCTYPE svg PUBLIC "-//W3C//DTD SVG 1.1//EN" "http://www.w3.org/Graphics/SVG/1.1/DTD/svg11.dtd">
<svg version="1.1" id="Layer_1" xmlns="http://www.w3.org/2000/svg" xmlns:xlink="http://www.w3.org/1999/xlink" x="0px" y="0px"
	 width="64px" height="64px" viewBox="0 0 64 64" enable-background="new 0 0 64 64" xml:space="preserve">
<path display="none" fill="#26a8ff" d="M56.835,23.051c-0.273,0-0.528,0.021-0.791,0.065C55.906,9.989,45.173,1,31.99,1
	C19.373,1,9.005,9.36,8.015,21.419h0.007v1.697c-0.417-0.043-0.54-0.066-0.814-0.066c-2.76,0.001-5.007,2.24-5.007,4.999v9.176
	c0,2.762,2.204,4.998,4.965,4.998c0.37,0,0.712-0.041,1.059-0.117c1.143,9.863,5.952,17.6,15.372,19.035
	C23.802,62.164,24.703,63,25.786,63h4.938c1.233,0,2.247-1.123,2.247-2.357V58.43c0-1.234-1.014-2.359-2.247-2.359h-4.938
	c-1.138,0-2.083,0.916-2.223,2.02c-8.239-1.49-11.986-8.633-12.664-17.662c0.74-0.871,1.142-1.971,1.142-3.203v-9.176
	c0-1.295-0.416-2.477-1.108-3.365v-1.309c0-11.674,9.391-19.469,21.064-19.469c11.678,0,21.072,7.795,21.072,19.469v1.309
	c-0.693,0.888-1.11,2.068-1.11,3.365v9.176c0,2.762,2.158,4.998,4.922,4.998c2.761,0,4.919-2.236,4.919-4.998v-9.176
	C61.8,25.29,59.596,23.051,56.835,23.051z"/>
<g display="none">
	<path display="inline" fill="#26a8ff" d="M45.734,5.078c-0.128-2.192-2.013-3.97-4.209-3.97H22.437c-2.195,0-4.08,1.776-4.209,3.97
		L16.075,32.09h31.812L45.734,5.078z"/>
	<path display="inline" fill="#26a8ff" d="M53.057,17.904c-1.099,0-1.986,0.891-1.986,1.987v11.005c0,1.098,0.888,1.989,1.986,1.989
		c1.101,0,1.988-0.891,1.988-1.989V19.89C55.044,18.794,54.157,17.904,53.057,17.904z"/>
	<path display="inline" fill="#26a8ff" d="M12.894,30.898V19.891c0-1.097-0.89-1.987-1.988-1.987s-1.987,0.891-1.987,1.987v11.005
		c0,1.099,0.89,1.989,1.987,1.989S12.894,31.996,12.894,30.898z"/>
	<path display="inline" fill="#26a8ff" d="M47.889,33.679H16.076c-2.197,0-3.976,1.78-3.976,3.976c0,2.197,1.779,3.978,3.976,3.978
		h31.813c2.194,0,3.977-1.78,3.977-3.978C51.865,35.46,50.085,33.679,47.889,33.679z"/>
	<path display="inline" fill="#26a8ff" d="M31.982,58.746c-1.181,0-2.142,0.958-2.142,2.142s0.96,2.142,2.142,2.142
		c1.18,0,2.141-0.96,2.141-2.142C34.123,59.704,33.162,58.746,31.982,58.746z"/>
	<circle display="inline" fill="#26a8ff" cx="16.745" cy="58.134" r="2.142"/>
	<path display="inline" fill="#26a8ff" d="M47.217,55.992c-1.181,0-2.144,0.962-2.144,2.143s0.963,2.139,2.144,2.139
		c1.182,0,2.142-0.958,2.142-2.139S48.398,55.992,47.217,55.992z"/>
	<path display="inline" fill="#26a8ff" d="M30.146,42.632v6.508l-13.704,3.528c-0.657,0.168-1.048,0.832-0.878,1.488
		c0.139,0.554,0.636,0.918,1.182,0.918c0.101,0,0.204-0.013,0.306-0.039l13.524-3.478v4.86c-0.001,0.776,0.628,1.409,1.405,1.409
		s1.407-0.633,1.407-1.409v-4.86l13.521,3.478c0.105,0.026,0.205,0.039,0.307,0.039c0.546,0,1.043-0.361,1.185-0.916
		c0.167-0.658-0.224-1.322-0.879-1.487L33.82,49.14v-6.508H30.146L30.146,42.632z"/>
</g>
<g>
	<polygon fill="#26a8ff" points="62.833,34.929 62.833,15.875 43.529,15.875 	"/>
	
		<rect x="28.55" y="29.658" transform="matrix(-0.7248 0.6889 -0.6889 -0.7248 98.2091 29.8008)" fill="#26a8ff" width="29.205" height="9.713"/>
	
		<rect x="0.264" y="29.657" transform="matrix(-0.7248 0.6889 -0.6889 -0.7248 49.4196 49.2873)" fill="#26a8ff" width="29.205" height="9.713"/>
	<polygon fill="#26a8ff" points="42.769,41.078 22.922,22.349 16.209,29.366 36.056,48.095 	"/>
</g>
</svg>
