<?xml version="1.0" encoding="utf-8"?>
<!-- Generator: Adobe Illustrator 16.0.0, SVG Export Plug-In . SVG Version: 6.00 Build 0)  -->
<!DOCTYPE svg PUBLIC "-//W3C//DTD SVG 1.1//EN" "http://www.w3.org/Graphics/SVG/1.1/DTD/svg11.dtd">
<svg version="1.1" id="Layer_1" xmlns="http://www.w3.org/2000/svg" xmlns:xlink="http://www.w3.org/1999/xlink" x="0px" y="0px"
	 width="64px" height="64px" viewBox="0 0 64 64" enable-background="new 0 0 64 64" xml:space="preserve">
<g>
	<path fill="#26a8ff" d="M6.202,54.144h25.612h0.37h25.612v-6.643c-2.658-0.664-7.381-3.985-7.381-20.593
		c0-12.622-8.49-16.977-13.951-18.527c0.443-0.738,0.664-1.55,0.664-2.436C37.129,3.215,34.84,1,32.11,1
		c-2.731,0-5.019,2.214-5.019,4.945c0,0.886,0.221,1.697,0.664,2.436c-5.461,1.476-13.95,5.905-13.95,18.527
		c0,16.607-4.724,19.929-7.381,20.593v6.643H6.202z"/>
	<path fill="#26a8ff" d="M31.962,63c3.543,0,6.495-2.878,7.01-6.641H24.95C25.467,60.122,28.42,63,31.962,63z"/>
</g>
</svg>
