<?xml version="1.0" encoding="iso-8859-1"?>
<!-- Generator: Adobe Illustrator 18.0.0, SVG Export Plug-In . SVG Version: 6.00 Build 0)  -->
<!DOCTYPE svg PUBLIC "-//W3C//DTD SVG 1.1//EN" "http://www.w3.org/Graphics/SVG/1.1/DTD/svg11.dtd">
<svg version="1.1" xmlns="http://www.w3.org/2000/svg" xmlns:xlink="http://www.w3.org/1999/xlink" x="0px" y="0px"
	 viewBox="0 0 64 64" enable-background="new 0 0 64 64" xml:space="preserve">
<g id="Work_Types">
	<g>
		<path fill="#26a8ff" d="M31.603,38.97L1.66,28.944C1.264,28.813,1,29.077,1,29.472V56.91c0,1.584,1.319,2.903,2.901,2.903h56.197
			c1.582,0,2.901-1.319,2.901-2.903V29.472c0-0.396-0.397-0.659-0.659-0.528l-29.813,9.893C32.132,38.97,31.868,38.97,31.603,38.97z
			"/>
		<path fill="#26a8ff" d="M32.396,35.749l30.207-10.025C62.868,25.591,63,25.459,63,25.196v-8.707c0-1.583-1.319-2.902-2.901-2.902
			h-13.72c-0.263,0-0.396-0.132-0.396-0.396C44.796,6.463,38.991,4.187,32,4.187c-6.991,0-12.796,2.145-13.852,9.004
			c0,0.264-0.265,0.396-0.395,0.396H4.034c-1.583,0-2.902,1.32-2.902,2.902v8.707c0,0.264,0.132,0.395,0.395,0.528l30.209,10.025
			C31.868,35.881,32.132,35.881,32.396,35.749z M32,7.145c4.749,0,8.838,1.298,9.762,5.783c0.132,0.264-0.131,0.527-0.527,0.527
			H22.634c-0.264,0-0.527-0.264-0.396-0.527C23.162,8.575,27.251,7.145,32,7.145z"/>
	</g>
</g>
</svg>
