<?xml version="1.0" encoding="utf-8"?>
<!-- Generator: Adobe Illustrator 16.0.0, SVG Export Plug-In . SVG Version: 6.00 Build 0)  -->
<!DOCTYPE svg PUBLIC "-//W3C//DTD SVG 1.1//EN" "http://www.w3.org/Graphics/SVG/1.1/DTD/svg11.dtd">
<svg version="1.1" id="Layer_1" xmlns="http://www.w3.org/2000/svg" xmlns:xlink="http://www.w3.org/1999/xlink" x="0px" y="0px"
	 width="64px" height="64px" viewBox="0 0 64 64" enable-background="new 0 0 64 64" xml:space="preserve">
<g>
	<path fill="#26a8ff" d="M129.709-68.241c-0.521-0.274-1.151-0.235-1.637,0.098l-14.596,10.054H99.086
		c-0.877,0-1.586,0.711-1.586,1.586v21.52c0,0.878,0.709,1.588,1.586,1.588h14.412l14.605,9.558
		c0.263,0.172,0.565,0.259,0.869,0.259c0.26,0,0.519-0.063,0.754-0.19c0.514-0.277,0.83-0.814,0.83-1.396v-41.671
		C130.557-67.426,130.232-67.967,129.709-68.241z"/>
	<path fill="#26a8ff" d="M152.098-46.023l6.682-6.681c0.961-0.961,0.961-2.451,0-3.412c-0.961-0.961-2.453-0.961-3.414,0
		l-6.678,6.68l-6.684-6.632c-0.961-0.961-2.449-0.961-3.41,0c-0.961,0.961-0.961,2.451,0,3.412l6.678,6.682l-6.678,6.68
		c-0.961,0.961-0.961,2.453,0,3.414s2.449,0.961,3.41,0l6.684-6.729l6.678,6.681c0.961,0.961,2.453,0.961,3.414,0
		s0.961-2.451,0-3.412L152.098-46.023z"/>
</g>
<g>
	<g>
		<path fill="#26a8ff" d="M23.588,35.129c0-0.777-0.629-1.406-1.407-1.406h-4.911c-0.776,0-1.407,0.629-1.407,1.406v4.91
			c0,0.777,0.63,1.405,1.407,1.405h4.911c0.777,0,1.407-0.628,1.407-1.405V35.129L23.588,35.129z"/>
		<path fill="#26a8ff" d="M35.861,35.129c0-0.777-0.63-1.406-1.405-1.406h-4.912c-0.776,0-1.406,0.629-1.406,1.406v4.91
			c0,0.777,0.63,1.405,1.406,1.405h4.912c0.775,0,1.405-0.628,1.405-1.405V35.129z"/>
		<path fill="#26a8ff" d="M48.135,35.129c0-0.777-0.631-1.406-1.406-1.406h-4.91c-0.777,0-1.407,0.629-1.407,1.406v4.91
			c0,0.777,0.63,1.405,1.407,1.405h4.91c0.775,0,1.406-0.628,1.406-1.405V35.129z"/>
		<path fill="#26a8ff" d="M23.588,47.401c0-0.777-0.629-1.406-1.407-1.406h-4.911c-0.776,0-1.407,0.629-1.407,1.406v4.91
			c0,0.777,0.63,1.407,1.407,1.407h4.911c0.777,0,1.407-0.63,1.407-1.407V47.401L23.588,47.401z"/>
		<path fill="#28ADE3" d="M35.861,47.401c0-0.777-0.63-1.406-1.405-1.406h-4.912c-0.776,0-1.406,0.629-1.406,1.406v4.91
			c0,0.777,0.63,1.407,1.406,1.407h4.912c0.775,0,1.405-0.63,1.405-1.407V47.401z"/>
		<path fill="#26a8ff" d="M48.135,47.401c0-0.777-0.631-1.406-1.406-1.406h-4.91c-0.777,0-1.407,0.629-1.407,1.406v4.91
			c0,0.777,0.63,1.407,1.407,1.407h4.91c0.775,0,1.406-0.63,1.406-1.407V47.401L48.135,47.401z"/>
		<path fill="#26a8ff" d="M56.916,7.827v7.5c0,3.39-2.75,6.122-6.139,6.122h-3.873c-3.39,0-6.177-2.732-6.177-6.122V7.8H23.271
			v7.526c0,3.39-2.787,6.122-6.176,6.122h-3.874c-3.389,0-6.139-2.732-6.139-6.122v-7.5c-2.962,0.089-5.396,2.541-5.396,5.554
			v43.951c0,3.069,2.488,5.591,5.557,5.591h49.511c3.065,0,5.558-2.525,5.558-5.591V13.381C62.313,10.368,59.878,7.917,56.916,7.827
			z M55.116,54.596c0,1.327-1.075,2.402-2.402,2.402H11.178c-1.327,0-2.402-1.075-2.402-2.402V31.893
			c0-1.326,1.075-2.402,2.402-2.402h41.536c1.327,0,2.402,1.076,2.402,2.402V54.596L55.116,54.596z"/>
		<path fill="#26a8ff" d="M13.208,17.428h3.831c1.163,0,2.106-0.941,2.106-2.104V3.028c0-1.163-0.943-2.104-2.106-2.104h-3.831
			c-1.163,0-2.105,0.941-2.105,2.104v12.296C11.103,16.486,12.045,17.428,13.208,17.428z"/>
		<path fill="#26a8ff" d="M46.854,17.428h3.831c1.161,0,2.104-0.941,2.104-2.104V3.028c0-1.163-0.943-2.104-2.104-2.104h-3.831
			c-1.163,0-2.106,0.941-2.106,2.104v12.296C44.748,16.486,45.691,17.428,46.854,17.428z"/>
	</g>
</g>
</svg>
