<?xml version="1.0" encoding="utf-8"?>
<!-- Generator: Adobe Illustrator 18.0.0, SVG Export Plug-In . SVG Version: 6.00 Build 0)  -->
<!DOCTYPE svg PUBLIC "-//W3C//DTD SVG 1.1//EN" "http://www.w3.org/Graphics/SVG/1.1/DTD/svg11.dtd">
<svg version="1.1" id="Layer_1" xmlns="http://www.w3.org/2000/svg" xmlns:xlink="http://www.w3.org/1999/xlink" x="0px" y="0px"
	 viewBox="0 0 64 64" enable-background="new 0 0 64 64" xml:space="preserve">
<g>
	<path fill="#26a8ff" d="M14.137,4.361c-0.182,0.071-0.256,0.122-0.417,0.4c-0.836,1.432-3.503,6.073-4.165,7.215
		c-0.675,1.168-0.678,2.31-0.054,3.361c1.75,2.953,23.673,40.643,27.121,46.56c0.423,0.729,1.263,1.566,2.781,1.592
		c1.428,0.023,8.899-0.025,10.523-0.033c0.156,0,0.465-0.038,0.624-0.133c0.176-0.104,4.206-2.384,4.617-2.627
		c0.78-0.46,1.592-1.789,0.824-3.107c-0.432-0.741-5.755-9.882-6.481-11.117c-0.927-1.585-2.251-2.058-3.341-2.037
		C45.362,44.45,35.4,44.446,35.4,44.446L24.102,25.059c0,0,4.464-7.638,5.239-8.981c0.733-1.262,0.871-2.717,0.211-3.851
		c-0.657-1.118-5.675-9.731-6.13-10.527c-0.539-0.947-1.939-1.564-3.167-0.869C19.357,1.338,14.717,4.141,14.137,4.361z"/>
</g>
</svg>
