<?xml version="1.0" encoding="utf-8"?>
<!-- Generator: Adobe Illustrator 18.0.0, SVG Export Plug-In . SVG Version: 6.00 Build 0)  -->
<!DOCTYPE svg PUBLIC "-//W3C//DTD SVG 1.1//EN" "http://www.w3.org/Graphics/SVG/1.1/DTD/svg11.dtd">
<svg version="1.1" id="Layer_1" xmlns="http://www.w3.org/2000/svg" xmlns:xlink="http://www.w3.org/1999/xlink" x="0px" y="0px"
	 viewBox="0 0 64 64" enable-background="new 0 0 64 64" xml:space="preserve">
<path fill="#26A8FF" d="M35.6,48.9c-0.8-1.4-1.9-1.8-2.9-1.8c-0.7,0-9.3,0-9.3,0l-9.7-16.7c0,0,3.8-6.6,4.5-7.7
	c0.6-1.1,0.7-2.3,0.2-3.3c-0.6-1-4.9-8.4-5.3-9.1c-0.5-0.8-1.7-1.3-2.7-0.7c-0.8,0.4-4.8,2.9-5.3,3c-0.2,0.1-0.2,0.1-0.4,0.3
	c-0.7,1.2-3,5.2-3.6,6.2c-0.6,1-0.6,2,0,2.9c1.5,2.5,20.4,35,23.4,40.1c0.4,0.6,1.1,1.4,2.4,1.4c1.2,0,7.7,0,9.1,0
	c0.1,0,0.4,0,0.5-0.1c0.2-0.1,3.6-2.1,4-2.3c0.7-0.4,1.4-1.5,0.7-2.7C40.8,57.9,36.2,50,35.6,48.9"/>
<path fill="#26A8FF" d="M43.9,1C33.4,1,24.8,9.6,24.8,20.1c0,10.5,8.6,19.1,19.1,19.1S63,30.6,63,20.1C63,9.6,54.4,1,43.9,1z
	 M36.1,24h-1.9l-0.7-3.3c-0.1-0.8-0.3-1.5-0.4-2.4h0c-0.1,0.9-0.3,1.6-0.4,2.4L32,24h-1.9l-1.8-7.7h1.9l0.6,3.2
	c0.2,0.9,0.3,1.9,0.5,2.7h0c0.1-0.8,0.3-1.8,0.5-2.7l0.7-3.2h1.9l0.6,3.3c0.2,0.9,0.3,1.7,0.4,2.6h0c0.1-0.9,0.3-1.8,0.4-2.7
	l0.6-3.2h1.8L36.1,24z M46.8,24h-1.9l-0.7-3.3c-0.1-0.8-0.3-1.5-0.4-2.4h0c-0.1,0.9-0.3,1.6-0.4,2.4L42.7,24h-1.9L39,16.2h1.9
	l0.6,3.2c0.2,0.9,0.3,1.9,0.5,2.7h0c0.1-0.8,0.3-1.8,0.5-2.7l0.7-3.2h1.9l0.6,3.3c0.2,0.9,0.3,1.7,0.4,2.6h0
	c0.1-0.9,0.3-1.8,0.4-2.7l0.6-3.2h1.8L46.8,24z M55.7,24L55,20.6c-0.1-0.8-0.3-1.5-0.4-2.4h0c-0.1,0.9-0.3,1.6-0.4,2.4L53.4,24h-1.9
	l-1.8-7.7h1.9l0.6,3.2c0.2,0.9,0.3,1.9,0.5,2.7h0c0.1-0.8,0.3-1.8,0.5-2.7l0.7-3.2h1.9l0.6,3.3c0.2,0.9,0.3,1.7,0.4,2.6h0
	c0.1-0.9,0.3-1.8,0.4-2.7l0.6-3.2h1.8l-2,7.7H55.7z"/>
</svg>
