<?xml version="1.0" encoding="utf-8"?>
<!-- Generator: Adobe Illustrator 16.0.0, SVG Export Plug-In . SVG Version: 6.00 Build 0)  -->
<!DOCTYPE svg PUBLIC "-//W3C//DTD SVG 1.1//EN" "http://www.w3.org/Graphics/SVG/1.1/DTD/svg11.dtd">
<svg version="1.1" id="Layer_1" xmlns="http://www.w3.org/2000/svg" xmlns:xlink="http://www.w3.org/1999/xlink" x="0px" y="0px"
	 width="64px" height="64px" viewBox="265.64 388.945 64 64" enable-background="new 265.64 388.945 64 64" xml:space="preserve">
<path fill="#26a8ff" d="M308.691,435.177c-0.91-1.557-2.215-2.024-3.289-2.003c-0.793,0.016-10.605,0.011-10.605,0.011
	l-11.125-19.088c0,0,4.397-7.52,5.163-8.845c0.715-1.243,0.854-2.675,0.203-3.791c-0.644-1.104-5.588-9.584-6.036-10.368
	c-0.531-0.931-1.907-1.541-3.119-0.855c-0.884,0.5-5.452,3.259-6.021,3.478c-0.181,0.07-0.253,0.121-0.412,0.395
	c-0.824,1.41-3.449,5.979-4.101,7.105c-0.668,1.15-0.669,2.273-0.056,3.307c1.725,2.909,23.313,40.023,26.702,45.845
	c0.42,0.719,1.247,1.548,2.738,1.572c1.41,0.021,8.771-0.024,10.367-0.03c0.152-0.002,0.455-0.042,0.613-0.136
	c0.174-0.099,4.145-2.348,4.545-2.586c0.77-0.454,1.568-1.76,0.813-3.061C314.65,445.401,309.406,436.399,308.691,435.177"/>
<polygon fill="#26a8ff" points="326.439,410.776 319.828,399.324 309.802,405.11 304.021,395.089 302.617,395.9 298.08,419.515 
	320.8,427.394 322.203,426.586 316.417,416.563 "/>
</svg>
