<?xml version="1.0" encoding="utf-8"?>
<!-- Generator: Adobe Illustrator 18.0.0, SVG Export Plug-In . SVG Version: 6.00 Build 0)  -->
<!DOCTYPE svg PUBLIC "-//W3C//DTD SVG 1.1//EN" "http://www.w3.org/Graphics/SVG/1.1/DTD/svg11.dtd">
<svg version="1.1" id="Layer_1" xmlns="http://www.w3.org/2000/svg" xmlns:xlink="http://www.w3.org/1999/xlink" x="0px" y="0px"
	 viewBox="0 0 64 64" enable-background="new 0 0 64 64" xml:space="preserve">
<path fill="#26a8ff" d="M33.8,46.9c0,1.9,0,3.8,0,5.7c0,0.2,0.1,0.4,0.3,0.5c0.9,0.5,1.7,1,2.6,1.4c0.4,0.2,0.6,0.6,0.6,1
	c0,1.2,0,2.4,0,3.6c0,0.5-0.2,0.8-0.6,1c-1.1,0.6-2.2,1.2-3.3,1.8c-0.4,0.2-0.8,0.2-1.1,0c-1.1-0.6-2.3-1.3-3.4-1.9
	c-0.4-0.2-0.5-0.5-0.5-0.9c0-1.3,0-2.5,0-3.8c0-0.4,0.2-0.7,0.5-0.9c0.9-0.5,1.8-1,2.7-1.5c0.2-0.1,0.3-0.2,0.3-0.5
	c0-3.8,0-7.7,0-11.5c0-0.2-0.1-0.3-0.2-0.4c-2.3-1.3-4.5-2.6-6.8-3.8c-0.2-0.1-0.3-0.1-0.5,0c-4,2.3-8.1,4.6-12.1,6.8
	c-0.2,0.1-0.3,0.2-0.3,0.4c0,0.7,0,1.4,0,2c0,0.4-0.2,0.7-0.6,1c-0.9,0.5-1.8,1-2.6,1.5c-0.4,0.2-0.7,0.2-1.1,0
	c-0.9-0.5-1.7-1-2.6-1.5c-0.4-0.2-0.6-0.5-0.6-1c0-0.9,0-1.9,0-2.8c0-0.5,0.2-0.8,0.6-1c0.9-0.5,1.7-1,2.6-1.5
	c0.4-0.2,0.7-0.2,1.1,0c0.7,0.4,1.3,0.7,2,1.1c0.2,0.1,0.3,0.1,0.4,0c4-2.3,8-4.5,12-6.8c0.2-0.1,0.2-0.2,0.2-0.4c0-2.7,0-5.4,0-8.1
	c0-0.2-0.1-0.3-0.2-0.4c-3.3-1.9-6.7-3.8-10-5.7c-0.2-0.1-0.3-0.1-0.5,0c-0.9,0.5-1.8,1-2.7,1.5c-0.4,0.2-0.7,0.2-1.1,0
	c-1.1-0.6-2.2-1.3-3.4-1.9c-0.4-0.2-0.5-0.5-0.5-0.9c0-1.3,0-2.5,0-3.8c0-0.4,0.2-0.7,0.5-0.9c1.1-0.6,2.3-1.2,3.4-1.9
	c0.4-0.2,0.7-0.2,1.1,0c1.1,0.6,2.2,1.2,3.3,1.8c0.4,0.2,0.6,0.6,0.6,1c0,1,0,1.9,0,2.9c0,0.2,0.1,0.3,0.2,0.4
	c3.3,1.9,6.7,3.8,10,5.7c0.1,0.1,0.3,0.1,0.4,0c2.3-1.3,4.7-2.7,7-4c0.2-0.1,0.2-0.2,0.2-0.4c0-1.4,0-2.8,0-4.1
	c0-0.2-0.1-0.3-0.2-0.4c-1.7-1-3.4-1.9-5-2.9c-0.5-0.3-0.7-0.6-0.7-1.2c0-2.2,0-4.4,0-6.6c0-0.5,0.2-0.8,0.6-1
	c1.9-1.1,3.9-2.2,5.8-3.4c0.4-0.2,0.7-0.2,1.1,0c2,1.1,3.9,2.3,5.9,3.4c0.4,0.2,0.5,0.5,0.5,0.9c0,2.3,0,4.6,0,6.9
	c0,0.4-0.2,0.7-0.6,0.9c-1.7,1-3.4,2-5.2,3c-0.2,0.1-0.3,0.2-0.3,0.4c0,1.4,0,2.7,0,4.1c0,0.2,0.1,0.3,0.2,0.4c2.3,1.3,4.7,2.6,7,4
	c0.2,0.1,0.3,0.1,0.5,0c2.8-1.6,5.6-3.1,8.4-4.6c0.2-0.1,0.3-0.2,0.3-0.4c0-1.3,0-2.6,0-3.8c0-0.5,0.2-0.8,0.6-1.1
	c1.4-0.8,2.7-1.5,4-2.3c0.4-0.2,0.8-0.2,1.2,0c1.4,0.8,2.7,1.6,4.1,2.3c0.4,0.2,0.6,0.5,0.6,1c0,1.6,0,3.1,0,4.7
	c0,0.4-0.2,0.8-0.6,1c-1.4,0.8-2.7,1.6-4.1,2.4c-0.4,0.2-0.7,0.2-1.1,0c-1.1-0.7-2.3-1.3-3.5-2c-0.2-0.1-0.3-0.1-0.4,0
	c-2.8,1.6-5.6,3.1-8.5,4.7c-0.2,0.1-0.3,0.2-0.3,0.5c0,2.7,0,5.3,0,8c0,0.2,0.1,0.4,0.3,0.5c2.8,1.7,5.6,3.3,8.4,5
	c0.2,0.1,0.3,0.1,0.5,0c1.2-0.7,2.4-1.3,3.5-2c0.4-0.2,0.7-0.2,1.1,0c1.4,0.8,2.7,1.6,4.1,2.4c0.4,0.2,0.6,0.5,0.6,1
	c0,1.6,0,3.1,0,4.7c0,0.4-0.2,0.8-0.6,1c-1.4,0.8-2.7,1.5-4.1,2.3c-0.4,0.2-0.8,0.2-1.2,0c-1.3-0.8-2.7-1.5-4-2.3
	c-0.4-0.2-0.6-0.6-0.6-1c0-1.2,0-2.5,0-3.7c0-0.2-0.1-0.3-0.2-0.5c-2.9-1.7-5.8-3.4-8.6-5.1c-0.2-0.1-0.4-0.1-0.6,0
	c-2.2,1.3-4.5,2.5-6.7,3.8c-0.2,0.1-0.3,0.2-0.3,0.4C33.8,43.1,33.8,45,33.8,46.9z"/>
</svg>
