<?xml version="1.0" encoding="iso-8859-1"?>
<!-- Generator: Adobe Illustrator 18.0.0, SVG Export Plug-In . SVG Version: 6.00 Build 0)  -->
<!DOCTYPE svg PUBLIC "-//W3C//DTD SVG 1.1//EN" "http://www.w3.org/Graphics/SVG/1.1/DTD/svg11.dtd">
<svg version="1.1" xmlns="http://www.w3.org/2000/svg" xmlns:xlink="http://www.w3.org/1999/xlink" x="0px" y="0px"
	 viewBox="0 0 64 64" enable-background="new 0 0 64 64" xml:space="preserve">
<g id="Services">
	<path fill="#26a8ff" d="M58.138,31.927c0-2.43-0.342-4.779-0.964-7.01l3.326-4.202c0,0-1.806-5.074-5.778-9.17l-5.101,1.226
		c-2.952-2.692-6.093-4.651-10.046-5.618L39.167,7.04l-1.983-5.543c-5.596-1.147-10.861,0.05-10.861,0.05L24.394,7.04l-0.449,0.133
		c-3.604,0.966-6.41,2.738-9.177,5.146l-5.491-1.232C5.306,15.183,3.5,20.245,3.5,20.245l3.381,4.263
		c-0.7,2.354-1.082,4.841-1.082,7.422c0,2.591,0.385,5.089,1.09,7.453L3.5,43.661c0,0,1.806,5.075,5.776,9.171l5.529-1.215
		c2.795,2.425,5.938,4.267,9.588,5.338l1.929,5.494c0,0,5.266,1.201,10.861,0.055l1.983-5.439c3.804-1.056,7.081-2.944,9.976-5.459
		l5.579,1.226c3.973-4.096,5.778-9.171,5.778-9.171l-3.437-4.338C57.758,36.977,58.138,34.497,58.138,31.927z M32.09,47.075
		c-8.434,0-15.269-6.816-15.269-15.225c0-8.408,6.835-15.224,15.269-15.224c8.433,0,15.268,6.816,15.268,15.224
		C47.357,40.259,40.522,47.075,32.09,47.075z"/>
</g>
</svg>
