<?xml version="1.0" encoding="utf-8"?>
<!-- Generator: Adobe Illustrator 18.0.0, SVG Export Plug-In . SVG Version: 6.00 Build 0)  -->
<!DOCTYPE svg PUBLIC "-//W3C//DTD SVG 1.1//EN" "http://www.w3.org/Graphics/SVG/1.1/DTD/svg11.dtd">
<svg version="1.1" id="Layer_1" xmlns="http://www.w3.org/2000/svg" xmlns:xlink="http://www.w3.org/1999/xlink" x="0px" y="0px"
	 viewBox="0 0 64 64" enable-background="new 0 0 64 64" xml:space="preserve">
<path fill="#26a8ff" d="M53.144,25.039c0-12.755-12.49-21.956-26.289-21.956c-13.881,0-26.287,9.268-26.287,21.956
	c0,4.497,1.617,8.914,4.482,12.341c0.124,4.015-2.237,9.777-4.366,13.966c5.699-1.025,13.806-3.307,17.478-5.56
	C38.396,50.72,53.144,38.315,53.144,25.039z M15.026,28.667c-1.812,0-3.286-1.473-3.286-3.287c0-1.814,1.474-3.286,3.286-3.286
	c1.811,0,3.286,1.472,3.286,3.286C18.312,27.194,16.837,28.667,15.026,28.667z M26.855,28.667c-1.811,0-3.285-1.473-3.285-3.287
	c0-1.814,1.473-3.286,3.285-3.286c1.813,0,3.287,1.472,3.287,3.286C30.142,27.194,28.668,28.667,26.855,28.667z M38.686,28.667
	c-1.814,0-3.286-1.473-3.286-3.287c0-1.814,1.472-3.286,3.286-3.286c1.813,0,3.286,1.472,3.286,3.286
	C41.972,27.194,40.498,28.667,38.686,28.667z M60.722,51.772c-0.078,2.628,1.468,6.4,2.859,9.145
	c-3.73-0.678-9.036-2.168-11.439-3.642c-8.846,2.151-16.072-0.762-19.908-5.519c11.981-1.734,21.665-9.352,24.946-19.302
	c3.891,2.575,6.479,6.549,6.479,11.237C63.659,46.632,62.602,49.528,60.722,51.772z"/>
</svg>
