<?xml version="1.0" encoding="utf-8"?>
<!-- Generator: Adobe Illustrator 16.0.0, SVG Export Plug-In . SVG Version: 6.00 Build 0)  -->
<!DOCTYPE svg PUBLIC "-//W3C//DTD SVG 1.1//EN" "http://www.w3.org/Graphics/SVG/1.1/DTD/svg11.dtd">
<svg version="1.1" id="Layer_1" xmlns="http://www.w3.org/2000/svg" xmlns:xlink="http://www.w3.org/1999/xlink" x="0px" y="0px"
	 width="64px" height="64px" viewBox="0 0 64 64" enable-background="new 0 0 64 64" xml:space="preserve">
<g>
	<path fill="#26a8ff" d="M60.538,41.98c1.639-2.411,2.457-5.001,2.457-7.77c0-2.835-0.865-5.488-2.595-7.957
		c-1.729-2.466-4.084-4.521-7.058-6.158c0.53,1.729,0.795,3.483,0.795,5.259c0,3.091-0.771,6.021-2.317,8.789
		s-3.76,5.211-6.644,7.334c-2.676,1.938-5.72,3.424-9.135,4.464c-3.413,1.037-6.977,1.558-10.69,1.558
		c-0.692,0-1.708-0.046-3.044-0.139c4.636,3.044,10.08,4.565,16.329,4.565c1.985,0,4.014-0.184,6.091-0.554
		c2.858,2.031,6.066,3.508,9.618,4.431c0.831,0.207,1.823,0.392,2.976,0.552c0.276,0.025,0.53-0.056,0.761-0.24
		c0.23-0.186,0.381-0.438,0.45-0.761c-0.011-0.139,0-0.215,0.035-0.226c0.034-0.01,0.028-0.086-0.018-0.223
		c-0.046-0.14-0.069-0.209-0.069-0.209l-0.086-0.173c-0.024-0.046-0.063-0.11-0.121-0.189c-0.058-0.081-0.104-0.14-0.139-0.173
		c-0.034-0.034-0.086-0.093-0.156-0.174c-0.067-0.079-0.113-0.132-0.138-0.154c-0.115-0.138-0.38-0.429-0.794-0.865
		c-0.416-0.438-0.717-0.778-0.899-1.021c-0.186-0.242-0.445-0.577-0.78-1.005c-0.333-0.426-0.623-0.869-0.865-1.329
		c-0.241-0.463-0.478-0.97-0.708-1.523C56.653,46.429,58.901,44.391,60.538,41.98z"/>
	<path fill="#26a8ff" d="M37.584,40.699c3.747-1.577,6.705-3.729,8.874-6.451c2.168-2.722,3.251-5.685,3.251-8.891
		c0-3.206-1.083-6.17-3.251-8.893c-2.169-2.721-5.127-4.873-8.874-6.453c-3.748-1.581-7.827-2.37-12.231-2.37
		c-4.406,0-8.483,0.79-12.232,2.371c-3.747,1.58-6.706,3.731-8.875,6.453c-2.168,2.722-3.252,5.686-3.252,8.892
		c0,2.744,0.82,5.329,2.457,7.751c1.638,2.421,3.887,4.463,6.747,6.122c-0.23,0.556-0.466,1.061-0.709,1.523
		c-0.242,0.463-0.53,0.905-0.865,1.331c-0.333,0.428-0.594,0.763-0.778,1.003c-0.185,0.244-0.485,0.583-0.9,1.022
		c-0.416,0.438-0.681,0.726-0.796,0.865c0-0.023-0.046,0.028-0.138,0.154s-0.144,0.185-0.156,0.173
		c-0.013-0.012-0.058,0.046-0.14,0.172c-0.079,0.128-0.121,0.191-0.121,0.191l-0.086,0.173c-0.035,0.067-0.058,0.137-0.068,0.207
		c-0.013,0.067-0.018,0.145-0.018,0.225c0,0.081,0.012,0.154,0.034,0.225c0.047,0.3,0.18,0.542,0.399,0.728
		c0.219,0.184,0.456,0.276,0.709,0.276h0.104c1.151-0.162,2.145-0.347,2.976-0.556c3.552-0.921,6.758-2.397,9.617-4.429
		c2.077,0.37,4.107,0.554,6.091,0.554C29.757,43.07,33.836,42.281,37.584,40.699z"/>
</g>
</svg>
