<?xml version="1.0" encoding="utf-8"?>
<!-- Generator: Adobe Illustrator 16.0.0, SVG Export Plug-In . SVG Version: 6.00 Build 0)  -->
<!DOCTYPE svg PUBLIC "-//W3C//DTD SVG 1.1//EN" "http://www.w3.org/Graphics/SVG/1.1/DTD/svg11.dtd">
<svg version="1.1" id="Layer_1" xmlns="http://www.w3.org/2000/svg" xmlns:xlink="http://www.w3.org/1999/xlink" x="0px" y="0px"
	 width="64px" height="64px" viewBox="0 0 64 64" enable-background="new 0 0 64 64" xml:space="preserve">
<path display="none" fill="#26a8ff" d="M56.835,23.051c-0.273,0-0.528,0.021-0.791,0.065C55.906,9.989,45.173,1,31.99,1
	C19.373,1,9.005,9.36,8.015,21.419h0.007v1.697c-0.417-0.043-0.54-0.066-0.814-0.066c-2.76,0.001-5.007,2.24-5.007,4.999v9.176
	c0,2.762,2.204,4.998,4.965,4.998c0.37,0,0.712-0.041,1.059-0.117c1.143,9.863,5.952,17.6,15.372,19.035
	C23.802,62.164,24.703,63,25.786,63h4.938c1.233,0,2.247-1.123,2.247-2.357V58.43c0-1.234-1.014-2.359-2.247-2.359h-4.938
	c-1.138,0-2.083,0.916-2.223,2.02c-8.239-1.49-11.986-8.633-12.664-17.662c0.74-0.871,1.142-1.971,1.142-3.203v-9.176
	c0-1.295-0.416-2.477-1.108-3.365v-1.309c0-11.674,9.391-19.469,21.064-19.469c11.678,0,21.072,7.795,21.072,19.469v1.309
	c-0.693,0.888-1.11,2.068-1.11,3.365v9.176c0,2.762,2.158,4.998,4.922,4.998c2.761,0,4.919-2.236,4.919-4.998v-9.176
	C61.8,25.29,59.596,23.051,56.835,23.051z"/>
<g>
	<path fill="#26a8ff" d="M36.458,11.57V9.3l1.665-1.664l0.378-0.378c-2.724-0.833-5.6-1.362-8.626-1.362
		c-15.738,0-28.525,12.787-28.525,28.526c0,15.739,12.788,28.526,28.525,28.526c15.74,0,28.528-12.787,28.528-28.526
		c0-3.329-0.606-6.507-1.59-9.458l-0.606,0.605l-1.664,1.665h-2.345h-1.136c0.756,2.27,1.211,4.691,1.211,7.188
		c0,12.333-10.064,22.396-22.398,22.396c-12.333,0-22.396-10.063-22.396-22.396c0-12.333,10.063-22.397,22.396-22.397
		c2.271,0,4.542,0.377,6.583,0.983V11.57L36.458,11.57z"/>
	<path fill="#26a8ff" d="M21.779,26.173c1.815-1.816,4.085-2.874,6.583-3.178l5.449-5.447c-1.286-0.303-2.649-0.455-4.011-0.455
		c-9.61,0-17.403,7.794-17.403,17.404c0,9.608,7.793,17.403,17.403,17.403c9.609,0,17.402-7.795,17.402-17.403
		c0-1.665-0.228-3.33-0.681-4.918l-5.447,5.448c-0.304,5.901-5.223,10.67-11.2,10.67c-6.204,0-11.273-5.07-11.273-11.275
		c0-0.076,0-0.152,0-0.152C18.525,31.319,19.584,28.368,21.779,26.173z"/>
	<path fill="#26a8ff" d="M52.575,11.116V1.052L41.983,11.646v5.675L30.631,28.67c-0.302-0.076-0.681-0.076-1.06-0.076
		c-1.437,0-2.799,0.53-3.934,1.589c-2.195,2.195-2.195,5.676,0,7.793c1.059,1.061,2.497,1.59,3.934,1.59
		c1.439,0,2.8-0.529,3.934-1.59c1.362-1.361,1.816-3.178,1.515-4.918l11.351-11.35h5.675L62.64,11.116H52.575z"/>
</g>
</svg>
