<?xml version="1.0" encoding="utf-8"?>
<!-- Generator: Adobe Illustrator 18.0.0, SVG Export Plug-In . SVG Version: 6.00 Build 0)  -->
<!DOCTYPE svg PUBLIC "-//W3C//DTD SVG 1.1//EN" "http://www.w3.org/Graphics/SVG/1.1/DTD/svg11.dtd">
<svg version="1.1" id="Layer_1" xmlns="http://www.w3.org/2000/svg" xmlns:xlink="http://www.w3.org/1999/xlink" x="0px" y="0px"
	 viewBox="0 0 64 64" enable-background="new 0 0 64 64" xml:space="preserve">
<path fill="#26a8ff" d="M63.186,12.6L32.944,33.261h-0.009l0,0c-0.043,0.028-0.089,0.058-0.135,0.081l-0.036,0.018
	c-0.048,0.027-0.1,0.049-0.151,0.068l0,0c-0.055,0.021-0.108,0.039-0.166,0.051h-0.012c-0.056,0.015-0.112,0.024-0.169,0.032
	c-0.007,0-0.013,0.031-0.022,0.032c-0.059,0.021-0.118,0.039-0.18,0.055l0,0c-0.056-0.012-0.112-0.023-0.167-0.041
	c-0.006,0-0.014-0.018-0.02-0.018c-0.056-0.01-0.112-0.021-0.167-0.039c0,0-0.009-0.004-0.016-0.007
	c-0.055-0.013-0.11-0.032-0.165-0.051l0,0c-0.05-0.021-0.1-0.043-0.149-0.068l-0.035-0.017c-0.044-0.025-0.087-0.049-0.123-0.076
	h-0.008l-0.009-0.008L0.611,12.891v39.074c0.001,0.982,0.794,1.778,1.775,1.783h59.359c0.983-0.005,1.776-0.804,1.775-1.788V12.288
	C63.425,12.408,63.313,12.513,63.186,12.6z"/>
<path fill="#26a8ff" d="M32.055,30.141l29.103-19.89H2.386c-0.059,0-0.117,0.01-0.173,0.015c0.024,0.015,0.049,0.028,0.073,0.044
	L32.055,30.141z"/>
</svg>
