<?xml version="1.0" encoding="iso-8859-1"?>
<!-- Generator: Adobe Illustrator 18.0.0, SVG Export Plug-In . SVG Version: 6.00 Build 0)  -->
<!DOCTYPE svg PUBLIC "-//W3C//DTD SVG 1.1//EN" "http://www.w3.org/Graphics/SVG/1.1/DTD/svg11.dtd">
<svg version="1.1" xmlns="http://www.w3.org/2000/svg" xmlns:xlink="http://www.w3.org/1999/xlink" x="0px" y="0px"
	 viewBox="0 0 64 64" enable-background="new 0 0 64 64" xml:space="preserve">
<g id="Layer_1">
	<g>
		<path fill="#26a8ff" d="M1.118,23.391c19.735,12.756,39.431,25.487,59.126,38.217c-0.005,0.015-0.011,0.031-0.016,0.046
			c-19.697,0-39.395,0-59.11,0C1.118,48.91,1.118,36.179,1.118,23.391z"/>
		<path fill="#26a8ff" d="M61.69,20.719c-9.898,6.379-19.754,12.73-29.63,19.095c-9.837-6.359-19.672-12.715-29.539-19.093
			c0.126-0.082,0.215-0.142,0.307-0.199C12.539,14.561,22.251,8.6,31.958,2.631c0.221-0.136,0.364-0.103,0.56,0.019
			c9.629,5.963,19.26,11.921,28.891,17.881C61.493,20.582,61.572,20.64,61.69,20.719z"/>
		<path fill="#26a8ff" d="M34.847,41.591c9.417-6.069,18.808-12.12,28.187-18.165c0.031,0.014,0.041,0.017,0.049,0.023
			c0.007,0.005,0.016,0.014,0.016,0.021c0.004,12.067,0.007,24.135,0.01,36.202c0,0.047-0.007,0.094-0.012,0.145
			C62.866,59.742,35.381,42.009,34.847,41.591z"/>
	</g>
</g>
</svg>
