<?xml version="1.0" encoding="utf-8"?>
<!-- Generator: Adobe Illustrator 18.0.0, SVG Export Plug-In . SVG Version: 6.00 Build 0)  -->
<!DOCTYPE svg PUBLIC "-//W3C//DTD SVG 1.1//EN" "http://www.w3.org/Graphics/SVG/1.1/DTD/svg11.dtd">
<svg version="1.1" id="Layer_1" xmlns="http://www.w3.org/2000/svg" xmlns:xlink="http://www.w3.org/1999/xlink" x="0px" y="0px"
	 viewBox="0 0 64 64" enable-background="new 0 0 64 64" xml:space="preserve">
<g transform="translate(0,-952.36218)">
	<g transform="translate(7.998524,965.33462)">
		<path fill="#26A8FF" d="M24-12c-4.1,0-7.4,3.3-7.4,7.4l1.5,28c0,3.2,2.7,5.9,5.9,5.9c3.3,0,5.9-2.7,5.9-5.9l1.5-28
			C31.4-8.7,28.1-12,24-12z M24,32.3c-4.9,0-8.8,4-8.8,8.9c0,4.9,4,8.8,8.8,8.8c4.9,0,8.9-4,8.9-8.8C32.9,36.3,28.9,32.3,24,32.3z"
			/>
	</g>
</g>
</svg>
