<?xml version="1.0" encoding="utf-8"?>
<!-- Generator: Adobe Illustrator 18.0.0, SVG Export Plug-In . SVG Version: 6.00 Build 0)  -->
<!DOCTYPE svg PUBLIC "-//W3C//DTD SVG 1.1//EN" "http://www.w3.org/Graphics/SVG/1.1/DTD/svg11.dtd">
<svg version="1.1" id="Layer_1" xmlns="http://www.w3.org/2000/svg" xmlns:xlink="http://www.w3.org/1999/xlink" x="0px" y="0px"
	 viewBox="0 0 64 64" enable-background="new 0 0 64 64" xml:space="preserve">
<g transform="translate(0,-952.36218)">
	<g transform="translate(7.998524,965.33462)">
		<path fill="#26a8ff" d="M24.124-8.817c-1.968,0-3.75,1.01-4.762,2.713L-6.649,38.472c-0.984,1.73-0.984,3.776,0,5.507
			c1.01,1.7,2.792,2.74,4.76,2.74h51.918c1.994,0,3.804-0.933,4.867-2.74c1.012-1.73,1.012-3.776,0-5.507L28.883-6.104
			C27.9-7.807,26.118-8.817,24.124-8.817z M24.124-4.323c0.293,0,0.744,0.266,0.876,0.48l26.013,44.604
			c0.133,0.239,0.133,0.717,0,0.956c-0.079,0.135-0.692,0.505-0.984,0.505H-1.89c-0.292,0-0.717-0.266-0.85-0.505
			c-0.16-0.239-0.16-0.717,0-0.956L23.271-3.844C23.405-4.057,23.831-4.323,24.124-4.323z M24.124,8.445
			c-2.076,0-3.75,1.674-3.75,3.75l0.744,14.256c0,1.649,1.357,3.006,3.006,3.006c1.675,0,3.006-1.357,3.006-3.006l0.744-14.256
			C27.874,10.119,26.197,8.445,24.124,8.445z M24.124,30.945c-2.475,0-4.496,2.023-4.496,4.521c0,2.474,2.021,4.497,4.496,4.497
			c2.499,0,4.521-2.023,4.521-4.497C28.644,32.968,26.623,30.945,24.124,30.945z"/>
	</g>
</g>
</svg>
