<?xml version="1.0" encoding="utf-8"?>
<!-- Generator: Adobe Illustrator 18.0.0, SVG Export Plug-In . SVG Version: 6.00 Build 0)  -->
<!DOCTYPE svg PUBLIC "-//W3C//DTD SVG 1.1//EN" "http://www.w3.org/Graphics/SVG/1.1/DTD/svg11.dtd">
<svg version="1.1" id="Layer_1" xmlns="http://www.w3.org/2000/svg" xmlns:xlink="http://www.w3.org/1999/xlink" x="0px" y="0px"
	 viewBox="0 0 64 64" enable-background="new 0 0 64 64" xml:space="preserve">
<path fill="#26a8ff" d="M37.183,9.164c-1.023,1.024-2.049,5.518-2.049,5.518c-0.396-1.103-0.158-4.494-0.158-4.494
	c-7.961,4.02-11.114,8.75-11.114,8.75C23.072,20.357,22.6,26.27,22.6,26.27c-1.418-2.286-0.551-5.991-0.551-5.991
	c-8.199,5.833-6.622,15.293-6.622,15.293c-1.261-2.049-1.182-5.045-1.182-5.045C7.938,37.07,7.465,48.499,7.465,48.499
	C3.839,53.07,0.449,60.875,0.449,60.875c2.365-2.917,5.439-4.729,5.439-4.729c1.104-3.864,4.415-7.727,4.415-7.727
	c9.066-1.972,16.949-9.064,16.949-9.064c-2.838-0.632-3.468-1.734-3.468-1.734c6.622,1.023,9.222-2.286,9.853-2.996
	c0.71-0.551,5.755-6.858,5.755-6.858c-4.178,0.474-5.912-0.473-5.912-0.473c2.602-0.394,6.307-0.866,7.804-1.497
	c1.498-0.71,7.253-9.46,7.253-9.46c-1.419-0.473-4.887,0.394-4.887,0.394c3.152-2.917,7.566-2.601,7.566-2.601
	C55.235,7.035,63.513,2.542,63.513,2.542C42.938,2.069,38.208,8.139,37.183,9.164z"/>
</svg>
