<?xml version="1.0" encoding="utf-8"?>
<!-- Generator: Adobe Illustrator 18.0.0, SVG Export Plug-In . SVG Version: 6.00 Build 0)  -->
<!DOCTYPE svg PUBLIC "-//W3C//DTD SVG 1.1//EN" "http://www.w3.org/Graphics/SVG/1.1/DTD/svg11.dtd">
<svg version="1.1" id="Layer_1" xmlns="http://www.w3.org/2000/svg" xmlns:xlink="http://www.w3.org/1999/xlink" x="0px" y="0px"
	 viewBox="0 419.5 64 64" enable-background="new 0 419.5 64 64" xml:space="preserve">
<path fill="#26A8FF" d="M47,436.7v-16.2H1v62h46v-25.3l-3,2.9v19.4H4v-56h40v16.1L47,436.7z"/>
<rect x="10" y="429.5" fill="#26A8FF" width="28" height="3"/>
<rect x="10" y="437.5" fill="#26A8FF" width="28" height="3"/>
<polygon fill="#26A8FF" points="37.9,445.5 34.8,448.5 10,448.5 10,445.5 "/>
<polygon fill="#26A8FF" points="29.7,453.5 26.6,456.5 10,456.5 10,453.5 "/>
<polygon fill="#26A8FF" points="25.8,461.5 25.2,464.5 10,464.5 10,461.5 "/>
<polygon fill="#26A8FF" points="56.8,431.4 29.8,457.6 28,465.5 36,463.7 63,437.5 "/>
</svg>
