<?xml version="1.0" encoding="utf-8"?>
<!-- Generator: Adobe Illustrator 18.0.0, SVG Export Plug-In . SVG Version: 6.00 Build 0)  -->
<!DOCTYPE svg PUBLIC "-//W3C//DTD SVG 1.1//EN" "http://www.w3.org/Graphics/SVG/1.1/DTD/svg11.dtd">
<svg version="1.1" id="Layer_1" xmlns="http://www.w3.org/2000/svg" xmlns:xlink="http://www.w3.org/1999/xlink" x="0px" y="0px"
	 viewBox="0 0 64 64" enable-background="new 0 0 64 64" xml:space="preserve">
<g id="Surveys">
	<g>
		<polygon fill="#26a8ff" points="54.7,15.3 40.6,15.3 40.6,2 		"/>
		<g>
			<path fill="#26a8ff" d="M37.6,18.4V1H9.1v62h45.9V18.4H37.6z M17.9,55.7c-2.1,0-3.7-1.7-3.7-3.7c0-2.1,1.7-3.7,3.7-3.7
				c2.1,0,3.7,1.7,3.7,3.7C21.7,54,20,55.7,17.9,55.7z M17.9,45.1c-2.1,0-3.7-1.7-3.7-3.7s1.7-3.7,3.7-3.7c2.1,0,3.7,1.7,3.7,3.7
				S20,45.1,17.9,45.1z M25.2,27.2l-7,7c-0.2,0.2-0.6,0.2-0.9,0l-3.5-3.5c-0.2-0.2-0.2-0.6,0-0.9l0.9-0.9c0.2-0.2,0.6-0.2,0.9,0
				l1.8,1.8c0.2,0.2,0.6,0.2,0.9,0l5.3-5.3c0.2-0.2,0.6-0.2,0.9,0l0.9,0.9C25.4,26.6,25.4,27,25.2,27.2z M50.4,52.6
				c0,0.3-0.2,0.6-0.5,0.6H28.3c-0.3,0-0.5-0.3-0.5-0.6v-1.2c0-0.3,0.2-0.6,0.5-0.6h21.6c0.3,0,0.5,0.3,0.5,0.6V52.6z M50.4,42
				c0,0.3-0.2,0.6-0.5,0.6H28.3c-0.3,0-0.5-0.3-0.5-0.6v-1.2c0-0.3,0.2-0.6,0.5-0.6h21.6c0.3,0,0.5,0.3,0.5,0.6V42z M50.4,31.5
				c0,0.3-0.2,0.6-0.5,0.6H28.3c-0.3,0-0.5-0.3-0.5-0.6v-1.2c0-0.3,0.2-0.6,0.5-0.6h21.6c0.3,0,0.5,0.3,0.5,0.6V31.5z"/>
		</g>
	</g>
</g>
</svg>
