<?xml version="1.0" encoding="utf-8"?>
<!-- Generator: Adobe Illustrator 16.0.0, SVG Export Plug-In . SVG Version: 6.00 Build 0)  -->
<!DOCTYPE svg PUBLIC "-//W3C//DTD SVG 1.1//EN" "http://www.w3.org/Graphics/SVG/1.1/DTD/svg11.dtd">
<svg version="1.1" id="Layer_1" xmlns="http://www.w3.org/2000/svg" xmlns:xlink="http://www.w3.org/1999/xlink" x="0px" y="0px"
	 width="64px" height="64px" viewBox="0 0 64 64" enable-background="new 0 0 64 64" xml:space="preserve">
<g>
	<path fill="#26a8ff" d="M3.368,6.753l20.695,27.307v19.751c0,0.858,0.43,1.718,1.203,2.146l10.562,6.612
		c0.43,0.258,0.859,0.43,1.373,0.43c0.43,0,0.859-0.086,1.289-0.344c0.859-0.43,1.287-1.288,1.287-2.232V34.061L60.473,6.753
		c0.086-0.086,0.086-0.086,0.172-0.172c0.688-1.116,0.773-2.49,0.086-3.693C60.131,1.772,58.842,1,57.555,1H6.288
		C5,1,3.712,1.687,3.111,2.889C2.51,4.005,2.51,5.465,3.197,6.582C3.283,6.582,3.283,6.667,3.368,6.753z"/>
</g>
</svg>
