<?xml version="1.0" encoding="utf-8"?>
<!-- Generator: Adobe Illustrator 18.0.0, SVG Export Plug-In . SVG Version: 6.00 Build 0)  -->
<!DOCTYPE svg PUBLIC "-//W3C//DTD SVG 1.1//EN" "http://www.w3.org/Graphics/SVG/1.1/DTD/svg11.dtd">
<svg version="1.1" id="Layer_1" xmlns="http://www.w3.org/2000/svg" xmlns:xlink="http://www.w3.org/1999/xlink" x="0px" y="0px"
	 viewBox="0 0 64 64" enable-background="new 0 0 64 64" xml:space="preserve">
<path fill="#26A8FF" d="M16.5,60.8L16.5,60.8c-0.8,0-1.5-0.7-1.5-1.5V2.5C15,1.7,15.7,1,16.5,1h0C17.3,1,18,1.7,18,2.5v56.8
	C18,60.2,17.3,60.8,16.5,60.8z"/>
<path fill="#26A8FF" d="M26,63H7v-3c0-1.7,1.3-3,3-3h13c1.7,0,3,1.3,3,3V63z"/>
<polygon fill="#26A8FF" points="47.7,14.5 55.7,24 23,24 23,5 55.7,5 "/>
</svg>
