<?xml version="1.0" encoding="utf-8"?>
<!-- Generator: Adobe Illustrator 18.0.0, SVG Export Plug-In . SVG Version: 6.00 Build 0)  -->
<!DOCTYPE svg PUBLIC "-//W3C//DTD SVG 1.1//EN" "http://www.w3.org/Graphics/SVG/1.1/DTD/svg11.dtd">
<svg version="1.1" id="Layer_1" xmlns="http://www.w3.org/2000/svg" xmlns:xlink="http://www.w3.org/1999/xlink" x="0px" y="0px"
	 viewBox="0 0 64 64" enable-background="new 0 0 64 64" xml:space="preserve">
<g>
	<path fill="#26a8ff" d="M32.003,1C14.881,1,1,14.879,1,31.999C1,49.12,14.881,63,32.003,63C49.122,63,63,49.12,63,31.999
		C63,14.879,49.122,1,32.003,1z M42.852,21.15c2.14,0,3.875,1.735,3.875,3.875c0,2.14-1.735,3.875-3.875,3.875
		c-2.142,0-3.875-1.735-3.875-3.875C38.978,22.885,40.711,21.15,42.852,21.15z M21.151,21.15c2.142,0,3.875,1.735,3.875,3.875
		c0,2.14-1.733,3.875-3.875,3.875c-2.14,0-3.876-1.735-3.876-3.875C17.276,22.885,19.011,21.15,21.151,21.15z M49.389,47.924
		c-1.012,0.792-2.473,0.613-3.265-0.398c-3.435-4.39-8.675-7-14.352-7c-5.235,0-10.108,2.215-13.542,6.032
		c-0.862,0.955-2.331,1.034-3.286,0.174c-0.954-0.859-1.031-2.329-0.173-3.283c4.311-4.787,10.433-7.574,17.001-7.574
		c7.124,0,13.71,3.283,18.014,8.785C50.578,45.671,50.4,47.131,49.389,47.924z"/>
</g>
</svg>
