<?xml version="1.0" encoding="utf-8"?>
<!-- Generator: Adobe Illustrator 16.0.0, SVG Export Plug-In . SVG Version: 6.00 Build 0)  -->
<!DOCTYPE svg PUBLIC "-//W3C//DTD SVG 1.1//EN" "http://www.w3.org/Graphics/SVG/1.1/DTD/svg11.dtd">
<svg version="1.1" id="Layer_1" xmlns="http://www.w3.org/2000/svg" xmlns:xlink="http://www.w3.org/1999/xlink" x="0px" y="0px"
	 width="64px" height="64px" viewBox="0 0 64 64" enable-background="new 0 0 64 64" xml:space="preserve">
<g>
	<polygon fill="#26a8ff" points="51.538,42.187 55.777,39.97 55.777,30.185 51.538,32.448 	"/>
	<path fill="#26a8ff" d="M31.999,42.61c-0.335,0-0.668-0.082-0.973-0.244l-20.742-11.08v9.714l21.714,11.398l12.316-6.439v-9.652
		l-11.345,6.059C32.667,42.528,32.334,42.61,31.999,42.61z"/>
	<path fill="#26a8ff" d="M48.659,30.617l-12.065-6.364c0.038-1.281-0.619-2.536-1.825-3.184c-0.524-0.282-1.091-0.417-1.646-0.417
		c-1.246,0-2.451,0.669-3.08,1.842c-0.913,1.698-0.273,3.814,1.425,4.728c0.52,0.278,1.078,0.409,1.628,0.409
		c0.727,0,1.438-0.229,2.035-0.651l11.248,5.928v20.051c0,0.855,0.693,1.547,1.548,1.547c0.856,0,1.547-0.691,1.547-1.547V31.979
		C49.475,31.411,49.161,30.886,48.659,30.617z"/>
	<path fill="#26a8ff" d="M31.999,9.495L1,23.988l30.999,16.558l12.154-6.492l-9.036-4.738c-0.639,0.25-1.323,0.379-2.021,0.379
		c-0.903,0-1.803-0.226-2.604-0.655c-1.308-0.702-2.263-1.871-2.692-3.291c-0.428-1.42-0.279-2.921,0.424-4.229
		c0.968-1.808,2.846-2.93,4.898-2.93c0.91,0,1.816,0.23,2.621,0.661c1.452,0.779,2.452,2.134,2.788,3.702l11.103,5.845
		c0.656,0.352,1.166,0.894,1.496,1.53L63,23.989L31.999,9.495z"/>
</g>
</svg>
