<?xml version="1.0" encoding="utf-8"?>
<!-- Generator: Adobe Illustrator 16.0.0, SVG Export Plug-In . SVG Version: 6.00 Build 0)  -->
<!DOCTYPE svg PUBLIC "-//W3C//DTD SVG 1.1//EN" "http://www.w3.org/Graphics/SVG/1.1/DTD/svg11.dtd">
<svg version="1.1" id="Layer_1" xmlns="http://www.w3.org/2000/svg" xmlns:xlink="http://www.w3.org/1999/xlink" x="0px" y="0px"
	 width="64px" height="64px" viewBox="0 0 64 64" enable-background="new 0 0 64 64" xml:space="preserve">
<path fill="#26a8ff" d="M56.835,23.051c-0.273,0-0.528,0.021-0.791,0.065C55.906,9.989,45.173,1,31.99,1
	C19.373,1,9.005,9.36,8.015,21.419h0.007v1.697c-0.417-0.043-0.54-0.066-0.814-0.066c-2.76,0.001-5.007,2.24-5.007,4.999v9.176
	c0,2.762,2.204,4.998,4.965,4.998c0.37,0,0.712-0.041,1.059-0.117c1.143,9.863,5.952,17.6,15.372,19.035
	C23.802,62.164,24.703,63,25.786,63h4.938c1.233,0,2.247-1.123,2.247-2.357V58.43c0-1.234-1.014-2.359-2.247-2.359h-4.938
	c-1.138,0-2.083,0.916-2.223,2.02c-8.239-1.49-11.986-8.633-12.664-17.662c0.74-0.871,1.142-1.971,1.142-3.203v-9.176
	c0-1.295-0.416-2.477-1.108-3.365v-1.309c0-11.674,9.391-19.469,21.064-19.469c11.678,0,21.072,7.795,21.072,19.469v1.309
	c-0.693,0.888-1.11,2.068-1.11,3.365v9.176c0,2.762,2.158,4.998,4.922,4.998c2.761,0,4.919-2.236,4.919-4.998v-9.176
	C61.8,25.29,59.596,23.051,56.835,23.051z"/>
</svg>
