<?xml version="1.0" encoding="utf-8"?>
<!-- Generator: Adobe Illustrator 16.0.0, SVG Export Plug-In . SVG Version: 6.00 Build 0)  -->
<!DOCTYPE svg PUBLIC "-//W3C//DTD SVG 1.1//EN" "http://www.w3.org/Graphics/SVG/1.1/DTD/svg11.dtd">
<svg version="1.1" id="Layer_1" xmlns="http://www.w3.org/2000/svg" xmlns:xlink="http://www.w3.org/1999/xlink" x="0px" y="0px"
	 width="64px" height="64px" viewBox="0 0 64 64" enable-background="new 0 0 64 64" xml:space="preserve">
<path fill="#26a8ff" d="M15.267,63.58c-8.108-0.005-14.676-6.581-14.67-14.688c0.002-3.886,1.545-7.61,4.29-10.361l13.338-13.347
	c2.75-2.76,6.486-4.307,10.381-4.299c2.806-0.001,5.553,0.804,7.916,2.317c0.894,0.566,1.72,1.231,2.466,1.982
	c0.849,0.852,1.293,2.028,1.215,3.229c-0.071,1.005-0.504,1.951-1.215,2.664c-1.655,1.558-4.238,1.558-5.894,0
	c-2.457-2.454-6.436-2.454-8.892,0l-13.39,13.379c-2.458,2.458-2.458,6.443,0,8.902c2.458,2.458,6.444,2.458,8.902,0l0,0
	l7.916-7.926c0.299-0.302,0.751-0.395,1.144-0.231c2.131,0.866,4.411,1.307,6.711,1.299h0.419c0.58-0.004,1.052,0.465,1.056,1.043
	c0.001,0.282-0.11,0.552-0.311,0.751l-11.01,11.011C22.889,62.054,19.156,63.594,15.267,63.58z"/>
<path fill="#26a8ff" d="M35.546,43.354h-0.063H34.75c-0.522-0.022-1.045-0.07-1.563-0.147c-0.43-0.073-0.85-0.157-1.27-0.262
	l-0.618-0.168c-0.22-0.063-0.45-0.137-0.671-0.22c-0.22-0.084-0.451-0.157-0.67-0.252c-0.221-0.095-0.442-0.178-0.66-0.283
	c-1.563-0.723-2.981-1.717-4.195-2.937c-0.85-0.853-1.292-2.028-1.216-3.229c0.067-1.012,0.499-1.966,1.216-2.685
	c1.656-1.557,4.238-1.557,5.893,0c2.456,2.453,6.436,2.453,8.892,0l3.439-3.418l0.084-0.094l9.836-9.825
	c2.459-2.458,2.459-6.444,0-8.902c-2.458-2.459-6.443-2.459-8.902,0l-7.896,7.885c-0.299,0.302-0.75,0.393-1.143,0.23
	c-2.127-0.869-4.404-1.315-6.701-1.311h-0.389c-0.428,0.009-0.819-0.245-0.985-0.639c-0.169-0.394-0.082-0.85,0.221-1.154
	L38.451,4.956c5.732-5.733,15.028-5.733,20.762,0c5.732,5.733,5.732,15.028,0,20.761L45.864,39.065
	c-1.877,1.878-4.229,3.212-6.805,3.858h-0.116l-0.606,0.126L38,43.112l-0.724,0.105H36.92c-0.272,0-0.514,0.052-0.745,0.063
	L35.546,43.354z"/>
</svg>
