<?xml version="1.0" encoding="iso-8859-1"?>
<!-- Generator: Adobe Illustrator 18.0.0, SVG Export Plug-In . SVG Version: 6.00 Build 0)  -->
<!DOCTYPE svg PUBLIC "-//W3C//DTD SVG 1.1//EN" "http://www.w3.org/Graphics/SVG/1.1/DTD/svg11.dtd">
<svg version="1.1" xmlns="http://www.w3.org/2000/svg" xmlns:xlink="http://www.w3.org/1999/xlink" x="0px" y="0px"
	 viewBox="0 0 64 64" enable-background="new 0 0 64 64" xml:space="preserve">
<g id="Site">
	<g>
		<path fill="#26a8ff" d="M32,1c-11.571,0-20.951,9.38-20.951,20.951c0,4.642,1.993,8.257,4.179,12.187
			c0.242,0.436,0.242,0.436,0.242,0.436c0.275,0.475,0.928,1.609,1.451,2.52l13.911,24.25c0.523,0.911,1.385,0.915,1.917,0.009
			l14.075-23.992c0.531-0.906,1.41-2.383,1.953-3.282c0,0,4.175-6.915,4.175-12.128C52.951,10.38,43.571,1,32,1z M40.694,24.765
			c0,1.05-0.74,2.347-1.644,2.882l-5.447,3.221c-0.904,0.535-2.384,0.535-3.288,0l-5.447-3.221
			c-0.904-0.535-1.644-1.831-1.644-2.882v-6.509c0-1.05,0.74-2.347,1.644-2.882l5.447-3.221c0.904-0.535,2.384-0.535,3.288,0
			l5.447,3.221c0.904,0.535,1.644,1.831,1.644,2.882V24.765z"/>
	</g>
</g>
</svg>
