<?xml version="1.0" encoding="iso-8859-1"?>
<!-- Generator: Adobe Illustrator 18.0.0, SVG Export Plug-In . SVG Version: 6.00 Build 0)  -->
<!DOCTYPE svg PUBLIC "-//W3C//DTD SVG 1.1//EN" "http://www.w3.org/Graphics/SVG/1.1/DTD/svg11.dtd">
<svg version="1.1" xmlns="http://www.w3.org/2000/svg" xmlns:xlink="http://www.w3.org/1999/xlink" x="0px" y="0px"
	 viewBox="0 0 64 64" enable-background="new 0 0 64 64" xml:space="preserve">
<g id="Members">
	<g>
		<path fill="#26a8ff" d="M54.695,50.291c-0.694,0.4-1.386,0.799-2.079,1.197c-6.585,3.78-13.171,7.557-19.752,11.344
			c-0.234,0.135-0.395,0.122-0.621-0.009c-7.165-4.134-14.334-8.261-21.502-12.389c-0.061-0.035-0.12-0.073-0.183-0.103
			c-0.111-0.053-0.164-0.131-0.157-0.26c0.007-0.129-0.009-0.26-0.009-0.389c0.003-1.06,0.02-2.119,0.007-3.179
			c-0.016-1.381,0.579-2.462,1.587-3.352c0.393-0.346,0.84-0.609,1.306-0.842c1.261-0.632,2.578-1.13,3.903-1.608
			c2.63-0.95,5.298-1.784,7.977-2.585c0.245-0.073,0.405-0.032,0.578,0.153c0.54,0.577,1.108,1.125,1.747,1.595
			c1.289,0.951,2.717,1.563,4.317,1.722c2.037,0.202,3.905-0.292,5.596-1.446c0.597-0.408,1.134-0.885,1.621-1.419
			c0.121-0.133,0.259-0.254,0.362-0.4c0.219-0.308,0.507-0.312,0.822-0.213c0.885,0.279,1.771,0.558,2.653,0.847
			c2.429,0.795,4.852,1.61,7.216,2.585c0.756,0.312,1.512,0.639,2.223,1.04c1.142,0.645,1.908,1.627,2.277,2.893
			c0.083,0.284,0.124,0.589,0.127,0.886c0.011,1.279,0.001,2.559-0.002,3.838C54.709,50.217,54.703,50.236,54.695,50.291z"/>
		<path fill="#26a8ff" d="M40.992,30.033c-0.037,0.135-0.073,0.246-0.099,0.359c-0.365,1.593-1.113,2.993-2.178,4.22
			c-0.714,0.822-1.448,1.631-2.218,2.399c-1.031,1.028-2.291,1.589-3.76,1.618c-0.97,0.019-1.877-0.24-2.724-0.709
			c-0.545-0.302-1.042-0.672-1.485-1.109c-0.484-0.477-0.956-0.967-1.432-1.451c-1.379-1.402-2.294-3.061-2.754-4.972
			c-0.027-0.114-0.063-0.226-0.104-0.369c-0.092,0.068-0.159,0.121-0.23,0.17c-0.398,0.277-0.86,0.02-0.883-0.404
			c-0.031-0.575-0.223-1.112-0.457-1.636c-0.183-0.41-0.355-0.826-0.503-1.249c-0.071-0.203-0.102-0.43-0.104-0.646
			c-0.004-0.588,0.387-0.945,0.977-0.916c0.098,0.005,0.196,0.024,0.326,0.04c-0.022-0.192-0.031-0.378-0.066-0.559
			c-0.161-0.832-0.159-1.671-0.085-2.509c0.162-1.821,0.708-3.521,1.678-5.075c1.052-1.685,2.434-3.029,4.269-3.822
			c3.073-1.327,5.983-0.935,8.659,1.036c1.999,1.473,3.215,3.496,3.855,5.877c0.322,1.198,0.42,2.42,0.356,3.655
			c-0.016,0.307-0.091,0.611-0.137,0.918c-0.02,0.136-0.033,0.274-0.053,0.441c0.102-0.009,0.177-0.014,0.251-0.023
			c0.633-0.079,1.078,0.304,1.072,0.941c-0.002,0.187-0.033,0.382-0.092,0.558c-0.128,0.378-0.268,0.752-0.431,1.116
			c-0.266,0.596-0.497,1.196-0.554,1.856c-0.04,0.46-0.464,0.649-0.859,0.407C41.153,30.151,41.084,30.097,40.992,30.033z"/>
		<path fill="#26a8ff" d="M10.801,19.66c0.724,0.753,1.399,1.49,2.114,2.188c1.074,1.048,2.342,1.762,3.819,2.078
			c0.952,0.204,1.905,0.2,2.857,0.004c0.048-0.01,0.096-0.017,0.172-0.031c-0.019,0.055-0.025,0.091-0.042,0.119
			c-0.709,1.093-0.838,2.277-0.491,3.508c0.164,0.584,0.41,1.145,0.639,1.709c0.128,0.316,0.245,0.625,0.294,0.969
			c0.161,1.12,0.703,2.004,1.683,2.601c0.079,0.048,0.161,0.129,0.193,0.213c0.304,0.797,0.698,1.548,1.159,2.264
			c0.01,0.015,0.009,0.037,0.016,0.073c-0.09,0.033-0.181,0.069-0.274,0.101c-2.11,0.709-4.222,1.415-6.33,2.13
			c-0.178,0.06-0.312,0.051-0.475-0.043c-4.936-2.841-9.875-5.677-14.814-8.515c-0.061-0.035-0.12-0.072-0.196-0.119
			c-0.004-0.079-0.013-0.167-0.013-0.255c-0.001-0.87-0.016-1.74,0.003-2.609c0.033-1.479,0.698-2.606,1.979-3.341
			c1.016-0.583,2.109-1.007,3.202-1.419c1.439-0.541,2.889-1.053,4.335-1.576C10.695,19.685,10.763,19.671,10.801,19.66z"/>
		<path fill="#26a8ff" d="M11.705,14.496c-0.084,0.056-0.131,0.091-0.182,0.121c-0.334,0.193-0.616,0.054-0.677-0.325
			c-0.038-0.236-0.07-0.476-0.141-0.703c-0.08-0.256-0.204-0.498-0.304-0.749c-0.104-0.259-0.217-0.516-0.296-0.783
			c-0.05-0.168-0.072-0.355-0.06-0.53c0.025-0.385,0.288-0.617,0.672-0.62c0.089-0.001,0.178,0.017,0.309,0.03
			c-0.023-0.194-0.031-0.379-0.067-0.558c-0.109-0.546-0.089-1.097-0.045-1.643c0.129-1.596,0.636-3.065,1.559-4.379
			c0.941-1.338,2.152-2.342,3.73-2.826c2.285-0.7,4.351-0.205,6.172,1.297c1.532,1.264,2.418,2.926,2.801,4.861
			c0.163,0.826,0.224,1.663,0.119,2.504c-0.028,0.225-0.082,0.447-0.132,0.711c0.315-0.043,0.596-0.062,0.82,0.152
			c0.136,0.131,0.198,0.295,0.203,0.492c-0.046,0.037-0.091,0.076-0.139,0.109c-2.593,1.803-4.295,4.251-5.237,7.245
			c-0.126,0.399-0.221,0.809-0.311,1.218c-0.04,0.181-0.121,0.298-0.284,0.389c-1.282,0.717-2.583,0.754-3.903,0.119
			c-0.472-0.227-0.898-0.526-1.268-0.895c-0.502-0.501-0.999-1.008-1.48-1.529c-0.888-0.961-1.438-2.104-1.761-3.363
			C11.776,14.737,11.744,14.633,11.705,14.496z"/>
		<path fill="#26a8ff" d="M41.979,35.289c0.054-0.092,0.096-0.168,0.143-0.241c0.411-0.64,0.786-1.299,1.063-2.01
			c0.046-0.118,0.118-0.198,0.225-0.265c0.952-0.591,1.492-1.453,1.64-2.557c0.049-0.363,0.163-0.697,0.318-1.024
			c0.3-0.633,0.556-1.282,0.699-1.972c0.219-1.059,0.096-2.066-0.441-3.014c-0.019-0.033-0.032-0.069-0.061-0.132
			c0.088-0.004,0.152-0.012,0.216-0.009c2.254,0.106,4.146-0.694,5.701-2.306c0.624-0.647,1.216-1.325,1.811-1.999
			c0.116-0.131,0.209-0.141,0.36-0.084c1.047,0.392,2.104,0.757,3.143,1.17c1.252,0.497,2.49,1.03,3.732,1.553
			c0.202,0.085,0.396,0.192,0.587,0.298c1.071,0.597,1.698,1.518,1.952,2.703c0.041,0.193,0.036,0.397,0.037,0.597
			c0.003,0.88-0.004,1.759,0.005,2.639c0.002,0.181-0.051,0.286-0.213,0.378c-4.807,2.762-9.611,5.528-14.414,8.297
			c-0.143,0.083-0.262,0.091-0.42,0.037c-1.937-0.659-3.877-1.308-5.816-1.961C42.161,35.359,42.079,35.326,41.979,35.289z"/>
		<path fill="#26a8ff" d="M52.603,14.503c-0.043,0.143-0.085,0.264-0.114,0.388c-0.259,1.102-0.767,2.083-1.495,2.939
			c-0.595,0.7-1.211,1.386-1.864,2.032c-0.831,0.821-1.851,1.24-3.033,1.211c-0.412-0.01-0.813-0.085-1.214-0.238
			c-0.773-4.194-2.867-7.508-6.571-9.739c0.229-0.223,0.488-0.198,0.787-0.155c-0.022-0.197-0.03-0.382-0.066-0.561
			c-0.118-0.586-0.092-1.177-0.037-1.763c0.153-1.627,0.696-3.115,1.672-4.431c0.975-1.315,2.216-2.28,3.809-2.717
			c2.09-0.574,4.006-0.144,5.716,1.156c1.611,1.224,2.562,2.879,3.009,4.836c0.188,0.824,0.24,1.661,0.19,2.503
			c-0.013,0.228-0.079,0.452-0.115,0.678c-0.012,0.076-0.009,0.155-0.013,0.248c0.095-0.005,0.172-0.011,0.249-0.013
			c0.473-0.012,0.775,0.287,0.753,0.765c-0.007,0.157-0.041,0.319-0.094,0.468c-0.107,0.3-0.228,0.597-0.358,0.888
			c-0.183,0.414-0.326,0.835-0.374,1.289c-0.04,0.382-0.333,0.519-0.671,0.325C52.719,14.584,52.673,14.55,52.603,14.503z"/>
	</g>
</g>
</svg>
