<?xml version="1.0" encoding="utf-8"?>
<!-- Generator: Adobe Illustrator 18.0.0, SVG Export Plug-In . SVG Version: 6.00 Build 0)  -->
<!DOCTYPE svg PUBLIC "-//W3C//DTD SVG 1.1//EN" "http://www.w3.org/Graphics/SVG/1.1/DTD/svg11.dtd">
<svg version="1.1" id="Layer_1" xmlns="http://www.w3.org/2000/svg" xmlns:xlink="http://www.w3.org/1999/xlink" x="0px" y="0px"
	 viewBox="0 0 64 64" enable-background="new 0 0 64 64" xml:space="preserve">
<g>
	<path fill="#26A8FF" d="M59.296,46.421c-0.856,0.493-1.709,0.985-2.563,1.476c-8.118,4.66-16.238,9.316-24.351,13.985
		c-0.288,0.166-0.487,0.15-0.766-0.011c-8.833-5.097-17.671-10.184-26.508-15.273c-0.075-0.043-0.148-0.09-0.226-0.127
		c-0.137-0.065-0.202-0.162-0.194-0.321c0.009-0.159-0.011-0.321-0.011-0.48c0.004-1.307,0.025-2.612,0.009-3.919
		c-0.02-1.703,0.714-3.035,1.956-4.132c0.484-0.427,1.036-0.751,1.61-1.038c1.555-0.779,3.178-1.393,4.812-1.982
		c3.242-1.171,6.532-2.199,9.834-3.187c0.302-0.09,0.499-0.039,0.713,0.189c0.666,0.711,1.366,1.387,2.154,1.966
		c1.589,1.172,3.35,1.927,5.322,2.123c2.511,0.249,4.814-0.36,6.899-1.783c0.736-0.503,1.398-1.091,1.998-1.749
		c0.149-0.164,0.319-0.313,0.446-0.493c0.27-0.38,0.625-0.385,1.013-0.263c1.091,0.344,2.183,0.688,3.271,1.044
		c2.995,0.98,5.982,1.985,8.896,3.187c0.932,0.385,1.864,0.788,2.741,1.282c1.408,0.795,2.352,2.006,2.807,3.567
		c0.102,0.35,0.153,0.726,0.157,1.092c0.014,1.577,0.001,3.155-0.002,4.732C59.313,46.33,59.306,46.354,59.296,46.421z"/>
	<path fill="#26A8FF" d="M42.403,22.447c-0.046,0.166-0.09,0.303-0.122,0.443c-0.45,1.964-1.372,3.69-2.685,5.203
		c-0.88,1.013-1.785,2.011-2.734,2.958c-1.271,1.267-2.824,1.959-4.635,1.995c-1.196,0.023-2.314-0.296-3.358-0.874
		c-0.672-0.372-1.285-0.828-1.831-1.367c-0.597-0.588-1.179-1.192-1.765-1.789c-1.7-1.728-2.828-3.774-3.395-6.13
		c-0.033-0.141-0.078-0.279-0.128-0.455c-0.113,0.084-0.196,0.149-0.284,0.21c-0.491,0.341-1.06,0.025-1.089-0.498
		c-0.038-0.709-0.275-1.371-0.563-2.017c-0.226-0.505-0.438-1.018-0.62-1.54c-0.088-0.25-0.126-0.53-0.128-0.796
		c-0.005-0.725,0.477-1.165,1.204-1.129c0.121,0.006,0.242,0.03,0.402,0.049c-0.027-0.237-0.038-0.466-0.081-0.689
		c-0.198-1.026-0.196-2.06-0.105-3.093c0.2-2.245,0.873-4.341,2.069-6.257c1.297-2.077,3.001-3.734,5.263-4.712
		c3.788-1.636,7.376-1.153,10.675,1.277c2.464,1.816,3.964,4.31,4.753,7.245c0.397,1.477,0.518,2.983,0.439,4.506
		c-0.02,0.378-0.112,0.753-0.169,1.132c-0.025,0.168-0.041,0.338-0.065,0.544c0.126-0.011,0.218-0.017,0.309-0.028
		c0.78-0.097,1.329,0.375,1.322,1.16c-0.002,0.231-0.041,0.471-0.113,0.688c-0.158,0.466-0.33,0.927-0.531,1.376
		c-0.328,0.735-0.613,1.474-0.683,2.288c-0.049,0.567-0.572,0.8-1.059,0.502C42.601,22.592,42.516,22.526,42.403,22.447z"/>
</g>
</svg>
