<?xml version="1.0" encoding="utf-8"?>
<!-- Generator: Adobe Illustrator 18.0.0, SVG Export Plug-In . SVG Version: 6.00 Build 0)  -->
<!DOCTYPE svg PUBLIC "-//W3C//DTD SVG 1.1//EN" "http://www.w3.org/Graphics/SVG/1.1/DTD/svg11.dtd">
<svg version="1.1" id="Layer_1" xmlns="http://www.w3.org/2000/svg" xmlns:xlink="http://www.w3.org/1999/xlink" x="0px" y="0px"
	 viewBox="0 0 64 64" enable-background="new 0 0 64 64" xml:space="preserve">
<path fill="#26a8ff" d="M32,63c-11.718,0-21.251-9.533-21.251-21.251V16.456C10.749,7.933,17.682,1,26.204,1h0.374
	C35.1,1,42.034,7.933,42.034,16.456v24.118c0,5.326-4.333,9.66-9.66,9.66s-9.66-4.333-9.66-9.66V15.262
	c0-1.928,1.562-3.49,3.49-3.49s3.49,1.562,3.49,3.49v25.311c0,1.477,1.202,2.68,2.68,2.68c1.477,0,2.68-1.203,2.68-2.68V16.456
	c0-4.674-3.802-8.476-8.476-8.476h-0.374c-4.674,0-8.476,3.802-8.476,8.476v25.293c0,7.869,6.402,14.271,14.271,14.271
	c7.869,0,14.271-6.402,14.271-14.271V4.49c0-1.928,1.563-3.49,3.49-3.49s3.49,1.562,3.49,3.49v37.259C53.251,53.467,43.718,63,32,63
	z"/>
</svg>
