<?xml version="1.0" encoding="utf-8"?>
<!-- Generator: Adobe Illustrator 18.0.0, SVG Export Plug-In . SVG Version: 6.00 Build 0)  -->
<!DOCTYPE svg PUBLIC "-//W3C//DTD SVG 1.1//EN" "http://www.w3.org/Graphics/SVG/1.1/DTD/svg11.dtd">
<svg version="1.1" id="Layer_1" xmlns="http://www.w3.org/2000/svg" xmlns:xlink="http://www.w3.org/1999/xlink" x="0px" y="0px"
	 viewBox="0 0 64 64" enable-background="new 0 0 64 64" xml:space="preserve">
<path fill="#26A8FF" d="M63.634,1.895h0.09c0,0-26.744,31.535-28.551,33.344c-1.808,1.808-4.519,1.808-6.235,0
	c-1.718-1.809-1.718-4.431,0-6.235C30.654,27.286,63.634,1.895,63.634,1.895z"/>
<path fill="#26A8FF" d="M61.051,21.441c1.261,3.389,1.952,7.058,1.952,10.889c0,17.229-13.96,31.192-31.19,31.192
	c-17.223,0-31.189-13.963-31.189-31.192c0-17.226,13.966-31.19,31.189-31.19c3.922,0,7.673,0.726,11.127,2.046l-2.756,7.163
	c-2.602-0.993-5.417-1.539-8.371-1.539c-12.947,0-23.446,10.497-23.446,23.451c0,12.946,10.499,23.445,23.446,23.445
	c12.953,0,23.449-10.499,23.449-23.445c0-2.779-0.483-5.441-1.368-7.913L61.051,21.441z"/>
</svg>
