<?xml version="1.0" encoding="utf-8"?>
<!-- Generator: Adobe Illustrator 16.0.0, SVG Export Plug-In . SVG Version: 6.00 Build 0)  -->
<!DOCTYPE svg PUBLIC "-//W3C//DTD SVG 1.1//EN" "http://www.w3.org/Graphics/SVG/1.1/DTD/svg11.dtd">
<svg version="1.1" id="Layer_1" xmlns="http://www.w3.org/2000/svg" xmlns:xlink="http://www.w3.org/1999/xlink" x="0px" y="0px"
	 width="64px" height="64px" viewBox="0 0 64 64" enable-background="new 0 0 64 64" xml:space="preserve">
<g>
	<g>
		<path fill="#26a8ff" d="M32.012,34.385c1.292,0,2.41-0.472,3.354-1.416c0.943-0.943,1.416-2.062,1.416-3.354V5.77
			c0-1.292-0.472-2.41-1.416-3.354C34.422,1.472,33.304,1,32.012,1s-2.409,0.473-3.354,1.416s-1.416,2.062-1.416,3.354v23.847
			c0,1.291,0.472,2.409,1.416,3.353C29.603,33.913,30.72,34.385,32.012,34.385z"/>
		<path fill="#26a8ff" d="M57.628,21.604c-2-3.999-4.813-7.353-8.438-10.06c-1.044-0.795-2.224-1.105-3.54-0.932
			s-2.359,0.795-3.13,1.862c-0.795,1.043-1.099,2.217-0.912,3.521c0.186,1.305,0.801,2.354,1.844,3.148
			c2.434,1.838,4.316,4.086,5.645,6.744c1.329,2.657,1.992,5.489,1.992,8.494c0,2.585-0.503,5.049-1.508,7.397
			c-1.006,2.347-2.366,4.377-4.081,6.091c-1.714,1.714-3.743,3.074-6.091,4.08s-4.813,1.51-7.396,1.51
			c-2.583,0-5.049-0.504-7.396-1.51c-2.348-1.006-4.378-2.366-6.092-4.08s-3.074-3.744-4.08-6.091
			c-1.006-2.349-1.509-4.813-1.509-7.397c0-3.005,0.664-5.836,1.993-8.494s3.21-4.906,5.645-6.744
			c1.043-0.796,1.658-1.845,1.845-3.148c0.186-1.304-0.118-2.479-0.913-3.521c-0.771-1.067-1.807-1.688-3.111-1.862
			c-1.304-0.174-2.49,0.137-3.559,0.932c-3.627,2.707-6.439,6.061-8.439,10.06s-2.999,8.259-2.999,12.779
			c0,3.876,0.758,7.577,2.272,11.104c1.516,3.527,3.552,6.57,6.111,9.129c2.558,2.559,5.601,4.596,9.128,6.109
			C24.436,62.241,28.137,63,32.012,63s7.576-0.759,11.104-2.274c3.527-1.515,6.57-3.551,9.129-6.109
			c2.558-2.559,4.595-5.602,6.109-9.129c1.516-3.526,2.272-7.229,2.272-11.104C60.626,29.863,59.628,25.604,57.628,21.604z"/>
	</g>
</g>
</svg>
