<?xml version="1.0" encoding="utf-8"?>
<!-- Generator: Adobe Illustrator 18.0.0, SVG Export Plug-In . SVG Version: 6.00 Build 0)  -->
<!DOCTYPE svg PUBLIC "-//W3C//DTD SVG 1.1//EN" "http://www.w3.org/Graphics/SVG/1.1/DTD/svg11.dtd">
<svg version="1.1" id="Layer_1" xmlns="http://www.w3.org/2000/svg" xmlns:xlink="http://www.w3.org/1999/xlink" x="0px" y="0px"
	 viewBox="0 0 64 64" enable-background="new 0 0 64 64" xml:space="preserve">
<path fill="#26a8ff" d="M31.999,1.001C14.851,1.001,1,14.851,1,31.999c0,17.15,13.851,31.001,30.999,31.001
	C49.15,62.999,63,49.149,63,31.999C63,14.851,49.15,1.001,31.999,1.001z M39.519,22.898c0-1.451,1.189-2.639,2.638-2.639
	c1.45,0,2.64,1.188,2.64,2.639v0.66c0,1.45-1.19,2.638-2.64,2.638c-1.449,0-2.638-1.189-2.638-2.638V22.898z M19.205,22.898
	c0-1.451,1.187-2.639,2.638-2.639c1.452,0,2.639,1.188,2.639,2.639v0.66c0,1.45-1.188,2.638-2.639,2.638
	c-1.451,0-2.638-1.189-2.638-2.638V22.898L19.205,22.898z M47.039,42.156c-4.089,4.088-9.631,6.201-15.039,6.201
	c-5.408,0-10.948-2.112-15.037-6.201c-1.055-1.055-1.055-2.638,0-3.693c1.056-1.055,2.638-1.055,3.694,0
	c6.332,6.333,16.488,6.333,22.819,0c1.055-1.055,2.64-1.055,3.697,0C48.095,39.518,48.095,41.101,47.039,42.156z"/>
</svg>
