<?xml version="1.0" encoding="utf-8"?>
<!-- Generator: Adobe Illustrator 16.0.0, SVG Export Plug-In . SVG Version: 6.00 Build 0)  -->
<!DOCTYPE svg PUBLIC "-//W3C//DTD SVG 1.1//EN" "http://www.w3.org/Graphics/SVG/1.1/DTD/svg11.dtd">
<svg version="1.1" id="Layer_1" xmlns="http://www.w3.org/2000/svg" xmlns:xlink="http://www.w3.org/1999/xlink" x="0px" y="0px"
	 width="64px" height="64px" viewBox="0 0 64 64" enable-background="new 0 0 64 64" xml:space="preserve">
<g>
	<path fill="#26a8ff" d="M33.209,9.759c-0.521-0.274-1.151-0.235-1.637,0.098L16.977,19.912H2.586C1.709,19.912,1,20.623,1,21.498
		v21.52c0,0.878,0.709,1.588,1.587,1.588h14.411l14.606,9.558c0.263,0.172,0.565,0.259,0.869,0.259c0.26,0,0.519-0.063,0.754-0.19
		c0.514-0.277,0.83-0.814,0.83-1.396V11.164C34.057,10.574,33.732,10.033,33.209,9.759z"/>
	<path fill="#26a8ff" d="M55.598,31.977l6.682-6.681c0.961-0.961,0.961-2.451,0-3.412c-0.961-0.961-2.453-0.961-3.414,0l-6.678,6.68
		l-6.684-6.632c-0.961-0.961-2.449-0.961-3.41,0c-0.961,0.961-0.961,2.451,0,3.412l6.678,6.682l-6.678,6.68
		c-0.961,0.961-0.961,2.453,0,3.414s2.449,0.961,3.41,0l6.684-6.729l6.678,6.681c0.961,0.961,2.453,0.961,3.414,0
		s0.961-2.451,0-3.412L55.598,31.977z"/>
</g>
</svg>
