<?xml version="1.0" encoding="iso-8859-1"?>
<!-- Generator: Adobe Illustrator 18.0.0, SVG Export Plug-In . SVG Version: 6.00 Build 0)  -->
<!DOCTYPE svg PUBLIC "-//W3C//DTD SVG 1.1//EN" "http://www.w3.org/Graphics/SVG/1.1/DTD/svg11.dtd">
<svg version="1.1" xmlns="http://www.w3.org/2000/svg" xmlns:xlink="http://www.w3.org/1999/xlink" x="0px" y="0px"
	 viewBox="0 0 64 64" enable-background="new 0 0 64 64" xml:space="preserve">
<g id="Teams">
	<g>
		<path fill="#26a8ff" d="M21.677,44.434c0.077,0.018,0.137,0.026,0.193,0.046c1.879,0.648,3.758,1.299,5.585,2.084
			c0.413,0.177,0.824,0.364,1.214,0.586c0.824,0.468,1.336,1.185,1.569,2.1c0.037,0.144,0.052,0.296,0.053,0.445
			c0.004,0.84,0,1.679-0.001,2.519c0,0.039-0.007,0.079-0.013,0.142c-4.85,2.788-9.708,5.581-14.574,8.377
			c-4.862-2.796-9.712-5.585-14.592-8.392c0-0.087,0-0.184,0-0.282c0-0.72-0.003-1.44,0.001-2.159
			c0.006-1.206,0.558-2.124,1.579-2.715c0.679-0.393,1.412-0.71,2.149-0.984c1.59-0.593,3.199-1.138,4.8-1.702
			c0.037-0.013,0.075-0.023,0.122-0.037c0.177,0.177,0.348,0.357,0.528,0.526c0.451,0.424,0.88,0.877,1.366,1.258
			c1.156,0.906,2.476,1.42,3.955,1.451c2.019,0.042,3.691-0.742,5.067-2.195C21.013,45.147,21.345,44.788,21.677,44.434z"/>
		<path fill="#26a8ff" d="M48.515,60.732c-0.305-0.174-0.599-0.341-0.893-0.51c-4.453-2.561-8.906-5.121-13.357-7.684
			c-0.411-0.237-0.339-0.121-0.342-0.569c-0.005-0.69-0.002-1.379-0.001-2.069c0.003-1.208,0.563-2.113,1.576-2.718
			c0.546-0.326,1.142-0.574,1.731-0.819c1.689-0.702,3.424-1.278,5.16-1.851c0.146-0.048,0.233-0.027,0.338,0.085
			c0.329,0.349,0.663,0.694,1.008,1.028c1.028,0.997,2.225,1.694,3.644,1.956c2.033,0.376,3.852-0.126,5.428-1.446
			c0.534-0.447,0.989-0.987,1.479-1.486c0.069-0.071,0.13-0.149,0.188-0.215c0.092,0.02,0.152,0.027,0.207,0.046
			c1.898,0.655,3.795,1.313,5.641,2.108c0.394,0.17,0.787,0.349,1.159,0.562c0.842,0.483,1.361,1.216,1.582,2.159
			c0.029,0.125,0.041,0.257,0.042,0.386c0.003,0.84,0.002,1.68,0.001,2.519c0,0.039-0.007,0.079-0.013,0.139
			C58.239,55.142,53.38,57.935,48.515,60.732z"/>
		<path fill="#26a8ff" d="M44.139,24.822c-0.64,0.367-1.281,0.735-1.922,1.102c-3.443,1.972-6.887,3.942-10.325,5.922
			c-0.222,0.128-0.378,0.118-0.594-0.008c-3.988-2.308-7.979-4.609-11.975-6.902c-0.223-0.128-0.305-0.267-0.297-0.519
			c0.02-0.639,0.011-1.279,0.017-1.919c0.005-0.549,0.23-1.005,0.602-1.397c0.286-0.301,0.625-0.528,0.995-0.711
			c0.952-0.472,1.954-0.815,2.961-1.142c0.826-0.268,1.662-0.509,2.488-0.776c0.192-0.062,0.303-0.018,0.44,0.121
			c0.393,0.397,0.785,0.803,1.218,1.154c1.148,0.929,2.463,1.438,3.952,1.424c1.659-0.016,3.069-0.65,4.258-1.792
			c0.281-0.27,0.544-0.559,0.804-0.85c0.103-0.115,0.2-0.137,0.342-0.092c1.668,0.524,3.339,1.037,4.951,1.72
			c0.266,0.113,0.529,0.238,0.78,0.382c0.48,0.275,0.842,0.67,1.097,1.161c0.14,0.269,0.226,0.555,0.226,0.862
			c0,0.7,0.001,1.4,0,2.099C44.157,24.712,44.146,24.761,44.139,24.822z"/>
		<path fill="#26a8ff" d="M9.647,35.961c-0.024-0.194-0.045-0.36-0.066-0.526c-0.21-1.721,0.153-3.322,1.048-4.797
			c0.806-1.326,1.918-2.311,3.415-2.776c2.026-0.63,3.857-0.189,5.459,1.172c1.266,1.076,2.002,2.475,2.315,4.097
			c0.168,0.87,0.202,1.746,0.018,2.621c-0.01,0.048-0.006,0.099-0.01,0.179c0.102,0,0.198-0.004,0.293,0.001
			c0.319,0.014,0.53,0.197,0.554,0.515c0.012,0.165-0.004,0.343-0.053,0.501c-0.083,0.266-0.197,0.523-0.307,0.779
			c-0.147,0.34-0.28,0.683-0.321,1.056c-0.046,0.423-0.26,0.53-0.635,0.329c-0.025-0.013-0.052-0.023-0.1-0.043
			c-0.033,0.108-0.069,0.208-0.093,0.311c-0.228,0.963-0.678,1.817-1.316,2.564c-0.499,0.585-1.016,1.159-1.562,1.7
			c-0.727,0.722-1.617,1.09-2.654,1.054c-0.709-0.025-1.349-0.266-1.93-0.664c-0.214-0.146-0.42-0.308-0.607-0.487
			c-0.354-0.339-0.693-0.693-1.034-1.045c-0.862-0.888-1.445-1.932-1.746-3.132c-0.024-0.096-0.054-0.191-0.087-0.31
			c-0.087,0.046-0.159,0.092-0.236,0.123c-0.228,0.093-0.454-0.001-0.48-0.241c-0.066-0.6-0.332-1.126-0.553-1.671
			c-0.085-0.209-0.146-0.439-0.162-0.664c-0.031-0.439,0.216-0.673,0.651-0.662C9.499,35.946,9.548,35.953,9.647,35.961z"/>
		<path fill="#26a8ff" d="M54.64,35.933c0.132,0,0.231-0.006,0.329,0.001c0.284,0.022,0.491,0.208,0.513,0.493
			c0.013,0.166,0.002,0.344-0.047,0.501c-0.089,0.285-0.206,0.562-0.325,0.836c-0.144,0.331-0.264,0.667-0.307,1.029
			c-0.051,0.422-0.263,0.518-0.643,0.311c-0.025-0.014-0.054-0.02-0.094-0.035c-0.027,0.09-0.058,0.173-0.077,0.258
			c-0.238,1.037-0.735,1.941-1.427,2.738c-0.459,0.528-0.929,1.049-1.424,1.542c-0.741,0.739-1.64,1.129-2.7,1.088
			c-0.752-0.029-1.443-0.273-2.024-0.74c-1.009-0.811-1.916-1.727-2.593-2.844c-0.329-0.543-0.52-1.144-0.693-1.751
			c-0.027-0.096-0.055-0.191-0.088-0.304c-0.087,0.046-0.161,0.094-0.241,0.126c-0.232,0.091-0.454-0.004-0.477-0.248
			c-0.057-0.603-0.335-1.124-0.552-1.671c-0.084-0.21-0.142-0.44-0.157-0.665c-0.03-0.439,0.216-0.667,0.657-0.656
			c0.05,0.001,0.099,0.007,0.184,0.014c-0.018-0.173-0.03-0.338-0.054-0.5c-0.142-0.955-0.059-1.897,0.191-2.822
			c0.469-1.734,1.4-3.155,2.924-4.14c2.171-1.404,4.892-1.169,6.856,0.577c1.234,1.097,1.966,2.48,2.268,4.092
			c0.157,0.84,0.202,1.686,0.019,2.532C54.64,35.765,54.645,35.836,54.64,35.933z"/>
		<path fill="#26a8ff" d="M26.886,13.322c-0.093,0.048-0.151,0.089-0.215,0.109c-0.22,0.067-0.384-0.026-0.411-0.256
			c-0.048-0.414-0.2-0.791-0.371-1.165c-0.082-0.181-0.159-0.368-0.208-0.561c-0.14-0.549,0.098-0.829,0.682-0.791
			c0-0.066,0.011-0.132-0.002-0.193c-0.185-0.872-0.08-1.731,0.14-2.578c0.3-1.157,0.87-2.165,1.743-2.989
			c2.045-1.931,4.965-1.877,6.931,0.134c1.052,1.076,1.624,2.38,1.772,3.873C37,9.423,37.027,9.94,36.886,10.451
			c-0.012,0.045-0.002,0.096-0.002,0.17c0.085,0,0.162-0.005,0.238,0.001c0.299,0.021,0.47,0.199,0.486,0.501
			c0.015,0.279-0.097,0.526-0.192,0.779c-0.129,0.345-0.256,0.69-0.379,1.037c-0.023,0.065-0.022,0.138-0.034,0.206
			c-0.047,0.276-0.212,0.366-0.474,0.257c-0.043-0.018-0.081-0.047-0.141-0.082c-0.035,0.107-0.067,0.188-0.087,0.272
			c-0.209,0.897-0.653,1.671-1.252,2.358c-0.381,0.436-0.772,0.866-1.182,1.275c-1.137,1.135-2.747,1.289-4.038,0.333
			c-0.927-0.687-1.729-1.522-2.298-2.537c-0.237-0.422-0.369-0.902-0.545-1.358C26.947,13.561,26.924,13.454,26.886,13.322z"/>
		<path fill="#26a8ff" d="M30.773,35.063c0.671,0,1.314,0,1.997,0c0,0.134,0,0.25,0,0.367c0,1.029,0.012,2.059-0.008,3.088
			c-0.005,0.282,0.096,0.425,0.332,0.556c0.881,0.491,1.75,1.003,2.624,1.508c0.095,0.055,0.187,0.113,0.316,0.192
			c-0.33,0.572-0.656,1.137-0.998,1.729c-1.089-0.628-2.159-1.245-3.238-1.867c-1.072,0.618-2.135,1.231-3.236,1.866
			c-0.333-0.574-0.66-1.139-1.004-1.732c1.076-0.623,2.136-1.236,3.215-1.861C30.773,37.631,30.773,36.355,30.773,35.063z"/>
	</g>
</g>
</svg>
