<?xml version="1.0" encoding="utf-8"?>
<!-- Generator: Adobe Illustrator 18.0.0, SVG Export Plug-In . SVG Version: 6.00 Build 0)  -->
<!DOCTYPE svg PUBLIC "-//W3C//DTD SVG 1.1//EN" "http://www.w3.org/Graphics/SVG/1.1/DTD/svg11.dtd">
<svg version="1.1" id="Layer_1" xmlns="http://www.w3.org/2000/svg" xmlns:xlink="http://www.w3.org/1999/xlink" x="0px" y="0px"
	 viewBox="0 0 64 64" enable-background="new 0 0 64 64" xml:space="preserve">
<g>
	<path fill="#26a8ff" d="M46.9,8.5v9.6H45c0-3.9-2.4-5.8-5.8-5.8H27.7v34.5c0,2,5.1,2,7.1,2v1.9H13.1v-1.9c2,0,7.1,0,7.1-2V12.3H8.6
		c-3.3,0-5.8,2-5.8,5.8H1V8.5h5.8h34.4C41.2,8.5,46.9,8.5,46.9,8.5z"/>
	<path fill="#26a8ff" d="M63,29.6v5.9h-1.2c0-2.4-1.5-3.6-3.6-3.6h-7.1v21.2c0,1.2,3.2,1.2,4.3,1.2v1.2H42v-1.2c1.2,0,4.3,0,4.3-1.2
		V32h-7.1c-2.1,0-3.6,1.2-3.6,3.6h-1.2v-5.9H38h21.2H63V29.6z"/>
</g>
</svg>
