<?xml version="1.0" encoding="utf-8"?>
<!-- Generator: Adobe Illustrator 18.0.0, SVG Export Plug-In . SVG Version: 6.00 Build 0)  -->
<!DOCTYPE svg PUBLIC "-//W3C//DTD SVG 1.1//EN" "http://www.w3.org/Graphics/SVG/1.1/DTD/svg11.dtd">
<svg version="1.1" id="Layer_1" xmlns="http://www.w3.org/2000/svg" xmlns:xlink="http://www.w3.org/1999/xlink" x="0px" y="0px"
	 viewBox="0 0 64 64" enable-background="new 0 0 64 64" xml:space="preserve">
<path fill="#26a8ff" d="M6.1,21.6c0-0.2,0-0.3,0-0.4c0-6.4,0-12.8,0-19.2c0-0.6,0.3-0.9,0.9-0.9c17.4,0,34.8,0,52.2,0
	c0.6,0,0.9,0.3,0.9,0.9c0,4.1,0,8.2,0,12.3c0,0.5-0.3,0.8-0.8,0.8c-1.5,0-2.9,0-4.4,0c-0.5,0-0.8-0.3-0.8-0.8c0-2.1,0-4.1,0-6.2
	c0-0.7-0.2-1-1-1c-13.5,0-27,0-40.5,0c-0.7,0-1,0.2-1,1c0,4.4,0,8.8,0,13.1c0,0.1,0,0.2,0,0.4c0.2,0,0.3,0,0.4,0
	c16.7,0,33.4,0,50.1,0c0.2,0,0.5,0.1,0.7,0.2c0.1,0.1,0.2,0.4,0.2,0.6c0,7.4,0,14.7,0,22.1c0,0.5-0.3,0.9-0.7,1.2
	c-2.1,1.2-4.2,2.4-6.2,3.6c-7.7,4.5-15.5,8.9-23.2,13.4c-0.6,0.3-1.1,0.3-1.7,0C21.5,57,11.8,51.4,2,45.8c-0.7-0.4-1-0.9-1-1.7
	c0-7.2,0-14.4,0-21.5c0-0.6,0.2-0.9,0.6-1c0.1,0,0.2,0,0.3,0C3.3,21.5,4.7,21.6,6.1,21.6z M30.6,41.3c0,0.7,0,1.5,0,2.2
	c0,0.7,0.4,1.2,1,1.4c1,0.3,2-0.4,2-1.5c0-1.4,0-2.9,0-4.3c0-0.2,0.1-0.3,0.2-0.4c0.8-0.5,1.6-0.9,2.4-1.4c0.8-0.5,1.3-1.3,1.3-2.3
	c0-1.1,0-2.2,0-3.4c0-1-0.5-1.7-1.3-2.3c-0.9-0.6-1.9-1.1-2.8-1.6c-0.9-0.5-1.8-0.5-2.7,0c-0.9,0.5-1.8,1.1-2.7,1.6
	c-0.8,0.5-1.3,1.3-1.4,2.3c0,1.1,0,2.3,0,3.4c0,1,0.5,1.8,1.4,2.3c0.8,0.5,1.6,0.9,2.4,1.4c0.2,0.1,0.2,0.2,0.2,0.4
	C30.5,39.9,30.6,40.6,30.6,41.3z"/>
</svg>
