<?xml version="1.0" encoding="iso-8859-1"?>
<!-- Generator: Adobe Illustrator 18.0.0, SVG Export Plug-In . SVG Version: 6.00 Build 0)  -->
<!DOCTYPE svg PUBLIC "-//W3C//DTD SVG 1.1//EN" "http://www.w3.org/Graphics/SVG/1.1/DTD/svg11.dtd">
<svg version="1.1" xmlns="http://www.w3.org/2000/svg" xmlns:xlink="http://www.w3.org/1999/xlink" x="0px" y="0px"
	 viewBox="0 0 64 64" enable-background="new 0 0 64 64" xml:space="preserve">
<g id="Work_Flows">
	<path fill="#26a8ff" d="M3.557,8.698c0,4.253,3.449,7.701,7.703,7.701c0.607,0,1.189-0.085,1.758-0.219l5.209,8.559
		c-2.928,2.199-4.832,5.688-4.832,9.634c0,3.25,1.295,6.195,3.389,8.361l-7.186,7.794c-0.674-0.238-1.389-0.395-2.143-0.395
		c-3.553,0-6.432,2.88-6.432,6.436C1.023,60.12,3.902,63,7.455,63c3.553,0,6.434-2.88,6.434-6.431c0-1.056-0.277-2.036-0.725-2.913
		l7.559-8.199c1.449,0.617,3.043,0.959,4.719,0.959c5.84,0,10.707-4.157,11.809-9.673h9.535c1.025,3.414,4.154,5.918,7.902,5.918
		c4.58,0,8.289-3.711,8.289-8.287c0-4.581-3.709-8.289-8.289-8.289c-3.748,0-6.877,2.5-7.902,5.914H37.25
		c-1.102-5.516-5.969-9.673-11.809-9.673c-1.004,0-1.973,0.138-2.906,0.367l-5.469-8.985c1.164-1.349,1.896-3.084,1.896-5.008
		c0-4.253-3.451-7.7-7.703-7.7C7.006,1,3.557,4.445,3.557,8.698z"/>
</g>
</svg>
