<?xml version="1.0" encoding="iso-8859-1"?>
<!-- Generator: Adobe Illustrator 18.0.0, SVG Export Plug-In . SVG Version: 6.00 Build 0)  -->
<!DOCTYPE svg PUBLIC "-//W3C//DTD SVG 1.1//EN" "http://www.w3.org/Graphics/SVG/1.1/DTD/svg11.dtd">
<svg version="1.1" xmlns="http://www.w3.org/2000/svg" xmlns:xlink="http://www.w3.org/1999/xlink" x="0px" y="0px"
	 viewBox="0 0 64 64" enable-background="new 0 0 64 64" xml:space="preserve">
<g id="Skills">
	<g>
		<path fill="#26a8ff" d="M2.217,53.658c-0.102-0.408-0.207-0.771-0.284-1.141c-1.422-6.879,2.835-13.587,9.674-15.23
			c1.915-0.46,3.842-0.472,5.766-0.042c0.236,0.053,0.379-0.004,0.542-0.174c4.666-4.848,9.337-9.691,14.007-14.535
			c1.596-1.655,3.192-3.311,4.788-4.966c0.076-0.079,0.15-0.16,0.232-0.247c-0.949-3.695-0.516-7.203,1.524-10.453
			c1.632-2.6,3.931-4.393,6.846-5.368c2.432-0.814,4.895-0.875,7.385-0.239c-0.555,0.575-1.096,1.133-1.634,1.693
			c-1.475,1.536-2.945,3.077-4.425,4.608c-0.298,0.308-0.472,0.665-0.559,1.073c-0.227,1.06-0.129,2.107,0.146,3.144
			c0.105,0.396,0.232,0.786,0.326,1.185c0.311,1.321,1.089,2.318,2.152,3.115c0.558,0.419,1.178,0.709,1.867,0.852
			c0.655,0.135,1.302,0.313,1.96,0.429c0.834,0.147,1.672,0.128,2.499-0.081c0.426-0.108,0.786-0.311,1.096-0.637
			c1.826-1.92,3.663-3.829,5.495-5.743c0.089-0.093,0.165-0.199,0.247-0.299c0.025,0.01,0.05,0.019,0.075,0.029
			c0.048,0.198,0.102,0.395,0.143,0.595c1.266,6.281-2.289,12.575-8.326,14.728c-2.285,0.815-4.623,0.966-6.999,0.48
			c-0.221-0.045-0.362-0.016-0.523,0.152c-4.547,4.727-9.099,9.448-13.651,14.17c-1.769,1.836-3.536,3.673-5.311,5.503
			c-0.144,0.149-0.176,0.278-0.131,0.475c1.004,4.433,0.054,8.396-2.959,11.806c-2.025,2.292-4.602,3.637-7.628,4.114
			c-1.487,0.234-2.968,0.191-4.444-0.087c-0.048-0.009-0.094-0.028-0.189-0.057c0.086-0.097,0.152-0.175,0.223-0.248
			c1.755-1.822,3.496-3.657,5.274-5.456c0.531-0.537,0.763-1.156,0.819-1.872c0.066-0.844-0.008-1.677-0.236-2.495
			c-0.113-0.404-0.237-0.805-0.333-1.214c-0.308-1.31-1.077-2.302-2.129-3.097c-0.557-0.421-1.173-0.717-1.862-0.862
			c-0.655-0.138-1.301-0.318-1.959-0.433c-0.854-0.149-1.712-0.136-2.558,0.086c-0.404,0.106-0.75,0.299-1.046,0.608
			c-1.847,1.927-3.704,3.845-5.557,5.766C2.452,53.401,2.353,53.512,2.217,53.658z"/>
		<path fill="#26a8ff" d="M43.852,33.39c0.097,0.129,0.16,0.235,0.244,0.319c3.166,3.169,6.344,6.326,9.497,9.509
			c1.421,1.435,2.523,3.106,3.282,4.977c1.492,3.675,2.945,7.366,4.404,11.054c0.12,0.302,0.205,0.631,0.235,0.953
			c0.061,0.651-0.309,1.018-0.96,1.014c-0.357-0.002-0.687-0.111-1.014-0.241c-1.783-0.708-3.566-1.414-5.349-2.122
			c-1.904-0.755-3.815-1.492-5.708-2.273c-1.867-0.77-3.543-1.859-4.979-3.28c-3.134-3.102-6.241-6.231-9.36-9.35
			c-0.076-0.076-0.15-0.155-0.237-0.247C37.21,40.281,40.497,36.871,43.852,33.39z"/>
		<path fill="#26a8ff" d="M11.486,21.204c3.324-3.324,6.672-6.672,9.991-9.991c2.896,2.896,5.811,5.811,8.754,8.754
			c-3.245,3.366-6.537,6.781-9.808,10.173C17.429,27.147,14.45,24.168,11.486,21.204z"/>
		<path fill="#26a8ff" d="M19.345,8.973c-3.369,3.369-6.718,6.718-10.081,10.081c-0.048-0.043-0.115-0.098-0.176-0.159
			c-2.17-2.169-4.341-4.338-6.509-6.51c-1.195-1.197-1.224-3.057-0.037-4.259c1.952-1.977,3.916-3.943,5.895-5.894
			c1.17-1.154,3.031-1.137,4.192,0.017c2.212,2.198,4.412,4.408,6.617,6.614C19.282,8.898,19.313,8.936,19.345,8.973z"/>
	</g>
</g>
</svg>
